<svg width="1920" height="854" viewBox="0 0 1920 854" fill="none" xmlns="http://www.w3.org/2000/svg">
<g opacity="0.3">
<line opacity="0.05" x1="0.5" y1="-116" x2="0.5" y2="973" stroke="#1F1F24"/>
<line opacity="0.05" x1="10.5" y1="-116" x2="10.5" y2="973" stroke="#1F1F24"/>
<line opacity="0.05" x1="20.5" y1="-116" x2="20.5" y2="973" stroke="#1F1F24"/>
<line opacity="0.05" x1="30.5" y1="-116" x2="30.5" y2="973" stroke="#1F1F24"/>
<line opacity="0.05" x1="40.5" y1="-116" x2="40.5" y2="973" stroke="#1F1F24"/>
<line opacity="0.05" x1="50.5" y1="-116" x2="50.5" y2="973" stroke="#1F1F24"/>
<line opacity="0.05" x1="60.5" y1="-116" x2="60.5" y2="973" stroke="#1F1F24"/>
<line opacity="0.05" x1="70.5" y1="-116" x2="70.5" y2="973" stroke="#1F1F24"/>
<line opacity="0.05" x1="80.5" y1="-116" x2="80.5" y2="973" stroke="#1F1F24"/>
<line opacity="0.05" x1="90.5" y1="-116" x2="90.5" y2="973" stroke="#1F1F24"/>
<line opacity="0.05" x1="100.5" y1="-116" x2="100.5" y2="973" stroke="#1F1F24"/>
<line opacity="0.05" x1="110.5" y1="-116" x2="110.5" y2="973" stroke="#1F1F24"/>
<line opacity="0.05" x1="120.5" y1="-116" x2="120.5" y2="973" stroke="#1F1F24"/>
<line opacity="0.05" x1="130.5" y1="-116" x2="130.5" y2="973" stroke="#1F1F24"/>
<line opacity="0.05" x1="140.5" y1="-116" x2="140.5" y2="973" stroke="#1F1F24"/>
<line opacity="0.05" x1="150.5" y1="-116" x2="150.5" y2="973" stroke="#1F1F24"/>
<line opacity="0.05" x1="160.5" y1="-116" x2="160.5" y2="973" stroke="#1F1F24"/>
<line opacity="0.05" x1="170.5" y1="-116" x2="170.5" y2="973" stroke="#1F1F24"/>
<line opacity="0.05" x1="180.5" y1="-116" x2="180.5" y2="973" stroke="#1F1F24"/>
<line opacity="0.05" x1="190.5" y1="-116" x2="190.5" y2="973" stroke="#1F1F24"/>
<line opacity="0.05" x1="200.5" y1="-116" x2="200.5" y2="973" stroke="#1F1F24"/>
<line opacity="0.05" x1="210.5" y1="-116" x2="210.5" y2="973" stroke="#1F1F24"/>
<line opacity="0.05" x1="220.5" y1="-116" x2="220.5" y2="973" stroke="#1F1F24"/>
<line opacity="0.05" x1="230.5" y1="-116" x2="230.5" y2="973" stroke="#1F1F24"/>
<line opacity="0.05" x1="240.5" y1="-116" x2="240.5" y2="973" stroke="#1F1F24"/>
<line opacity="0.05" x1="250.5" y1="-116" x2="250.5" y2="973" stroke="#1F1F24"/>
<line opacity="0.05" x1="260.5" y1="-116" x2="260.5" y2="973" stroke="#1F1F24"/>
<line opacity="0.05" x1="270.5" y1="-116" x2="270.5" y2="973" stroke="#1F1F24"/>
<line opacity="0.05" x1="280.5" y1="-116" x2="280.5" y2="973" stroke="#1F1F24"/>
<line opacity="0.05" x1="290.5" y1="-116" x2="290.5" y2="973" stroke="#1F1F24"/>
<line opacity="0.05" x1="300.5" y1="-116" x2="300.5" y2="973" stroke="#1F1F24"/>
<line opacity="0.05" x1="310.5" y1="-116" x2="310.5" y2="973" stroke="#1F1F24"/>
<line opacity="0.05" x1="320.5" y1="-116" x2="320.5" y2="973" stroke="#1F1F24"/>
<line opacity="0.05" x1="330.5" y1="-116" x2="330.5" y2="973" stroke="#1F1F24"/>
<line opacity="0.05" x1="340.5" y1="-116" x2="340.5" y2="973" stroke="#1F1F24"/>
<line opacity="0.05" x1="350.5" y1="-116" x2="350.5" y2="973" stroke="#1F1F24"/>
<line opacity="0.05" x1="360.5" y1="-116" x2="360.5" y2="973" stroke="#1F1F24"/>
<line opacity="0.05" x1="370.5" y1="-116" x2="370.5" y2="973" stroke="#1F1F24"/>
<line opacity="0.05" x1="380.5" y1="-116" x2="380.5" y2="973" stroke="#1F1F24"/>
<line opacity="0.05" x1="390.5" y1="-116" x2="390.5" y2="973" stroke="#1F1F24"/>
<line opacity="0.05" x1="400.5" y1="-116" x2="400.5" y2="973" stroke="#1F1F24"/>
<line opacity="0.05" x1="410.5" y1="-116" x2="410.5" y2="973" stroke="#1F1F24"/>
<line opacity="0.05" x1="420.5" y1="-116" x2="420.5" y2="973" stroke="#1F1F24"/>
<line opacity="0.05" x1="430.5" y1="-116" x2="430.5" y2="973" stroke="#1F1F24"/>
<line opacity="0.05" x1="440.5" y1="-116" x2="440.5" y2="973" stroke="#1F1F24"/>
<line opacity="0.05" x1="450.5" y1="-116" x2="450.5" y2="973" stroke="#1F1F24"/>
<line opacity="0.05" x1="460.5" y1="-116" x2="460.5" y2="973" stroke="#1F1F24"/>
<line opacity="0.05" x1="470.5" y1="-116" x2="470.5" y2="973" stroke="#1F1F24"/>
<line opacity="0.05" x1="480.5" y1="-116" x2="480.5" y2="973" stroke="#1F1F24"/>
<line opacity="0.05" x1="490.5" y1="-116" x2="490.5" y2="973" stroke="#1F1F24"/>
<line opacity="0.05" x1="500.5" y1="-116" x2="500.5" y2="973" stroke="#1F1F24"/>
<line opacity="0.05" x1="510.5" y1="-116" x2="510.5" y2="973" stroke="#1F1F24"/>
<line opacity="0.05" x1="520.5" y1="-116" x2="520.5" y2="973" stroke="#1F1F24"/>
<line opacity="0.05" x1="530.5" y1="-116" x2="530.5" y2="973" stroke="#1F1F24"/>
<line opacity="0.05" x1="540.5" y1="-116" x2="540.5" y2="973" stroke="#1F1F24"/>
<line opacity="0.05" x1="550.5" y1="-116" x2="550.5" y2="973" stroke="#1F1F24"/>
<line opacity="0.05" x1="560.5" y1="-116" x2="560.5" y2="973" stroke="#1F1F24"/>
<line opacity="0.05" x1="570.5" y1="-116" x2="570.5" y2="973" stroke="#1F1F24"/>
<line opacity="0.05" x1="580.5" y1="-116" x2="580.5" y2="973" stroke="#1F1F24"/>
<line opacity="0.05" x1="590.5" y1="-116" x2="590.5" y2="973" stroke="#1F1F24"/>
<line opacity="0.05" x1="600.5" y1="-116" x2="600.5" y2="973" stroke="#1F1F24"/>
<line opacity="0.05" x1="610.5" y1="-116" x2="610.5" y2="973" stroke="#1F1F24"/>
<line opacity="0.05" x1="620.5" y1="-116" x2="620.5" y2="973" stroke="#1F1F24"/>
<line opacity="0.05" x1="630.5" y1="-116" x2="630.5" y2="973" stroke="#1F1F24"/>
<line opacity="0.05" x1="640.5" y1="-116" x2="640.5" y2="973" stroke="#1F1F24"/>
<line opacity="0.05" x1="650.5" y1="-116" x2="650.5" y2="973" stroke="#1F1F24"/>
<line opacity="0.05" x1="660.5" y1="-116" x2="660.5" y2="973" stroke="#1F1F24"/>
<line opacity="0.05" x1="670.5" y1="-116" x2="670.5" y2="973" stroke="#1F1F24"/>
<line opacity="0.05" x1="680.5" y1="-116" x2="680.5" y2="973" stroke="#1F1F24"/>
<line opacity="0.05" x1="690.5" y1="-116" x2="690.5" y2="973" stroke="#1F1F24"/>
<line opacity="0.05" x1="700.5" y1="-116" x2="700.5" y2="973" stroke="#1F1F24"/>
<line opacity="0.05" x1="710.5" y1="-116" x2="710.5" y2="973" stroke="#1F1F24"/>
<line opacity="0.05" x1="720.5" y1="-116" x2="720.5" y2="973" stroke="#1F1F24"/>
<line opacity="0.05" x1="730.5" y1="-116" x2="730.5" y2="973" stroke="#1F1F24"/>
<line opacity="0.05" x1="740.5" y1="-116" x2="740.5" y2="973" stroke="#1F1F24"/>
<line opacity="0.05" x1="750.5" y1="-116" x2="750.5" y2="973" stroke="#1F1F24"/>
<line opacity="0.05" x1="760.5" y1="-116" x2="760.5" y2="973" stroke="#1F1F24"/>
<line opacity="0.05" x1="770.5" y1="-116" x2="770.5" y2="973" stroke="#1F1F24"/>
<line opacity="0.05" x1="780.5" y1="-116" x2="780.5" y2="973" stroke="#1F1F24"/>
<line opacity="0.05" x1="790.5" y1="-116" x2="790.5" y2="973" stroke="#1F1F24"/>
<line opacity="0.05" x1="800.5" y1="-116" x2="800.5" y2="973" stroke="#1F1F24"/>
<line opacity="0.05" x1="810.5" y1="-116" x2="810.5" y2="973" stroke="#1F1F24"/>
<line opacity="0.05" x1="820.5" y1="-116" x2="820.5" y2="973" stroke="#1F1F24"/>
<line opacity="0.05" x1="830.5" y1="-116" x2="830.5" y2="973" stroke="#1F1F24"/>
<line opacity="0.05" x1="840.5" y1="-116" x2="840.5" y2="973" stroke="#1F1F24"/>
<line opacity="0.05" x1="850.5" y1="-116" x2="850.5" y2="973" stroke="#1F1F24"/>
<line opacity="0.05" x1="860.5" y1="-116" x2="860.5" y2="973" stroke="#1F1F24"/>
<line opacity="0.05" x1="870.5" y1="-116" x2="870.5" y2="973" stroke="#1F1F24"/>
<line opacity="0.05" x1="880.5" y1="-116" x2="880.5" y2="973" stroke="#1F1F24"/>
<line opacity="0.05" x1="890.5" y1="-116" x2="890.5" y2="973" stroke="#1F1F24"/>
<line opacity="0.05" x1="900.5" y1="-116" x2="900.5" y2="973" stroke="#1F1F24"/>
<line opacity="0.05" x1="910.5" y1="-116" x2="910.5" y2="973" stroke="#1F1F24"/>
<line opacity="0.05" x1="920.5" y1="-116" x2="920.5" y2="973" stroke="#1F1F24"/>
<line opacity="0.05" x1="930.5" y1="-116" x2="930.5" y2="973" stroke="#1F1F24"/>
<line opacity="0.05" x1="940.5" y1="-116" x2="940.5" y2="973" stroke="#1F1F24"/>
<line opacity="0.05" x1="950.5" y1="-116" x2="950.5" y2="973" stroke="#1F1F24"/>
<line opacity="0.05" x1="960.5" y1="-116" x2="960.5" y2="973" stroke="#1F1F24"/>
<line opacity="0.05" x1="970.5" y1="-116" x2="970.5" y2="973" stroke="#1F1F24"/>
<line opacity="0.05" x1="980.5" y1="-116" x2="980.5" y2="973" stroke="#1F1F24"/>
<line opacity="0.05" x1="990.5" y1="-116" x2="990.5" y2="973" stroke="#1F1F24"/>
<line opacity="0.05" x1="1000.5" y1="-116" x2="1000.5" y2="973" stroke="#1F1F24"/>
<line opacity="0.05" x1="1010.5" y1="-116" x2="1010.5" y2="973" stroke="#1F1F24"/>
<line opacity="0.05" x1="1020.5" y1="-116" x2="1020.5" y2="973" stroke="#1F1F24"/>
<line opacity="0.05" x1="1030.5" y1="-116" x2="1030.5" y2="973" stroke="#1F1F24"/>
<line opacity="0.05" x1="1040.5" y1="-116" x2="1040.5" y2="973" stroke="#1F1F24"/>
<line opacity="0.05" x1="1050.5" y1="-116" x2="1050.5" y2="973" stroke="#1F1F24"/>
<line opacity="0.05" x1="1060.5" y1="-116" x2="1060.5" y2="973" stroke="#1F1F24"/>
<line opacity="0.05" x1="1070.5" y1="-116" x2="1070.5" y2="973" stroke="#1F1F24"/>
<line opacity="0.05" x1="1080.5" y1="-116" x2="1080.5" y2="973" stroke="#1F1F24"/>
<line opacity="0.05" x1="1090.5" y1="-116" x2="1090.5" y2="973" stroke="#1F1F24"/>
<line opacity="0.05" x1="1100.5" y1="-116" x2="1100.5" y2="973" stroke="#1F1F24"/>
<line opacity="0.05" x1="1110.5" y1="-116" x2="1110.5" y2="973" stroke="#1F1F24"/>
<line opacity="0.05" x1="1120.5" y1="-116" x2="1120.5" y2="973" stroke="#1F1F24"/>
<line opacity="0.05" x1="1130.5" y1="-116" x2="1130.5" y2="973" stroke="#1F1F24"/>
<line opacity="0.05" x1="1140.5" y1="-116" x2="1140.5" y2="973" stroke="#1F1F24"/>
<line opacity="0.05" x1="1150.5" y1="-116" x2="1150.5" y2="973" stroke="#1F1F24"/>
<line opacity="0.05" x1="1160.5" y1="-116" x2="1160.5" y2="973" stroke="#1F1F24"/>
<line opacity="0.05" x1="1170.5" y1="-116" x2="1170.5" y2="973" stroke="#1F1F24"/>
<line opacity="0.05" x1="1180.5" y1="-116" x2="1180.5" y2="973" stroke="#1F1F24"/>
<line opacity="0.05" x1="1190.5" y1="-116" x2="1190.5" y2="973" stroke="#1F1F24"/>
<line opacity="0.05" x1="1200.5" y1="-116" x2="1200.5" y2="973" stroke="#1F1F24"/>
<line opacity="0.05" x1="1210.5" y1="-116" x2="1210.5" y2="973" stroke="#1F1F24"/>
<line opacity="0.05" x1="1220.5" y1="-116" x2="1220.5" y2="973" stroke="#1F1F24"/>
<line opacity="0.05" x1="1230.5" y1="-116" x2="1230.5" y2="973" stroke="#1F1F24"/>
<line opacity="0.05" x1="1240.5" y1="-116" x2="1240.5" y2="973" stroke="#1F1F24"/>
<line opacity="0.05" x1="1250.5" y1="-116" x2="1250.5" y2="973" stroke="#1F1F24"/>
<line opacity="0.05" x1="1260.5" y1="-116" x2="1260.5" y2="973" stroke="#1F1F24"/>
<line opacity="0.05" x1="1270.5" y1="-116" x2="1270.5" y2="973" stroke="#1F1F24"/>
<line opacity="0.05" x1="1280.5" y1="-116" x2="1280.5" y2="973" stroke="#1F1F24"/>
<line opacity="0.05" x1="1290.5" y1="-116" x2="1290.5" y2="973" stroke="#1F1F24"/>
<line opacity="0.05" x1="1300.5" y1="-116" x2="1300.5" y2="973" stroke="#1F1F24"/>
<line opacity="0.05" x1="1310.5" y1="-116" x2="1310.5" y2="973" stroke="#1F1F24"/>
<line opacity="0.05" x1="1320.5" y1="-116" x2="1320.5" y2="973" stroke="#1F1F24"/>
<line opacity="0.05" x1="1330.5" y1="-116" x2="1330.5" y2="973" stroke="#1F1F24"/>
<line opacity="0.05" x1="1340.5" y1="-116" x2="1340.5" y2="973" stroke="#1F1F24"/>
<line opacity="0.05" x1="1350.5" y1="-116" x2="1350.5" y2="973" stroke="#1F1F24"/>
<line opacity="0.05" x1="1360.5" y1="-116" x2="1360.5" y2="973" stroke="#1F1F24"/>
<line opacity="0.05" x1="1370.5" y1="-116" x2="1370.5" y2="973" stroke="#1F1F24"/>
<line opacity="0.05" x1="1380.5" y1="-116" x2="1380.5" y2="973" stroke="#1F1F24"/>
<line opacity="0.05" x1="1390.5" y1="-116" x2="1390.5" y2="973" stroke="#1F1F24"/>
<line opacity="0.05" x1="1400.5" y1="-116" x2="1400.5" y2="973" stroke="#1F1F24"/>
<line opacity="0.05" x1="1410.5" y1="-116" x2="1410.5" y2="973" stroke="#1F1F24"/>
<line opacity="0.05" x1="1420.5" y1="-116" x2="1420.5" y2="973" stroke="#1F1F24"/>
<line opacity="0.05" x1="1430.5" y1="-116" x2="1430.5" y2="973" stroke="#1F1F24"/>
<line opacity="0.05" x1="1440.5" y1="-116" x2="1440.5" y2="973" stroke="#1F1F24"/>
<line opacity="0.05" x1="1450.5" y1="-116" x2="1450.5" y2="973" stroke="#1F1F24"/>
<line opacity="0.05" x1="1460.5" y1="-116" x2="1460.5" y2="973" stroke="#1F1F24"/>
<line opacity="0.05" x1="1470.5" y1="-116" x2="1470.5" y2="973" stroke="#1F1F24"/>
<line opacity="0.05" x1="1480.5" y1="-116" x2="1480.5" y2="973" stroke="#1F1F24"/>
<line opacity="0.05" x1="1490.5" y1="-116" x2="1490.5" y2="973" stroke="#1F1F24"/>
<line opacity="0.05" x1="1500.5" y1="-116" x2="1500.5" y2="973" stroke="#1F1F24"/>
<line opacity="0.05" x1="1510.5" y1="-116" x2="1510.5" y2="973" stroke="#1F1F24"/>
<line opacity="0.05" x1="1520.5" y1="-116" x2="1520.5" y2="973" stroke="#1F1F24"/>
<line opacity="0.05" x1="1530.5" y1="-116" x2="1530.5" y2="973" stroke="#1F1F24"/>
<line opacity="0.05" x1="1540.5" y1="-116" x2="1540.5" y2="973" stroke="#1F1F24"/>
<line opacity="0.05" x1="1550.5" y1="-116" x2="1550.5" y2="973" stroke="#1F1F24"/>
<line opacity="0.05" x1="1560.5" y1="-116" x2="1560.5" y2="973" stroke="#1F1F24"/>
<line opacity="0.05" x1="1570.5" y1="-116" x2="1570.5" y2="973" stroke="#1F1F24"/>
<line opacity="0.05" x1="1580.5" y1="-116" x2="1580.5" y2="973" stroke="#1F1F24"/>
<line opacity="0.05" x1="1590.5" y1="-116" x2="1590.5" y2="973" stroke="#1F1F24"/>
<line opacity="0.05" x1="1600.5" y1="-116" x2="1600.5" y2="973" stroke="#1F1F24"/>
<line opacity="0.05" x1="1610.5" y1="-116" x2="1610.5" y2="973" stroke="#1F1F24"/>
<line opacity="0.05" x1="1620.5" y1="-116" x2="1620.5" y2="973" stroke="#1F1F24"/>
<line opacity="0.05" x1="1630.5" y1="-116" x2="1630.5" y2="973" stroke="#1F1F24"/>
<line opacity="0.05" x1="1640.5" y1="-116" x2="1640.5" y2="973" stroke="#1F1F24"/>
<line opacity="0.05" x1="1650.5" y1="-116" x2="1650.5" y2="973" stroke="#1F1F24"/>
<line opacity="0.05" x1="1660.5" y1="-116" x2="1660.5" y2="973" stroke="#1F1F24"/>
<line opacity="0.05" x1="1670.5" y1="-116" x2="1670.5" y2="973" stroke="#1F1F24"/>
<line opacity="0.05" x1="1680.5" y1="-116" x2="1680.5" y2="973" stroke="#1F1F24"/>
<line opacity="0.05" x1="1690.5" y1="-116" x2="1690.5" y2="973" stroke="#1F1F24"/>
<line opacity="0.05" x1="1700.5" y1="-116" x2="1700.5" y2="973" stroke="#1F1F24"/>
<line opacity="0.05" x1="1710.5" y1="-116" x2="1710.5" y2="973" stroke="#1F1F24"/>
<line opacity="0.05" x1="1720.5" y1="-116" x2="1720.5" y2="973" stroke="#1F1F24"/>
<line opacity="0.05" x1="1730.5" y1="-116" x2="1730.5" y2="973" stroke="#1F1F24"/>
<line opacity="0.05" x1="1740.5" y1="-116" x2="1740.5" y2="973" stroke="#1F1F24"/>
<line opacity="0.05" x1="1750.5" y1="-116" x2="1750.5" y2="973" stroke="#1F1F24"/>
<line opacity="0.05" x1="1760.5" y1="-116" x2="1760.5" y2="973" stroke="#1F1F24"/>
<line opacity="0.05" x1="1770.5" y1="-116" x2="1770.5" y2="973" stroke="#1F1F24"/>
<line opacity="0.05" x1="1780.5" y1="-116" x2="1780.5" y2="973" stroke="#1F1F24"/>
<line opacity="0.05" x1="1790.5" y1="-116" x2="1790.5" y2="973" stroke="#1F1F24"/>
<line opacity="0.05" x1="1800.5" y1="-116" x2="1800.5" y2="973" stroke="#1F1F24"/>
<line opacity="0.05" x1="1810.5" y1="-116" x2="1810.5" y2="973" stroke="#1F1F24"/>
<line opacity="0.05" x1="1820.5" y1="-116" x2="1820.5" y2="973" stroke="#1F1F24"/>
<line opacity="0.05" x1="1830.5" y1="-116" x2="1830.5" y2="973" stroke="#1F1F24"/>
<line opacity="0.05" x1="1840.5" y1="-116" x2="1840.5" y2="973" stroke="#1F1F24"/>
<line opacity="0.05" x1="1850.5" y1="-116" x2="1850.5" y2="973" stroke="#1F1F24"/>
<line opacity="0.05" x1="1860.5" y1="-116" x2="1860.5" y2="973" stroke="#1F1F24"/>
<line opacity="0.05" x1="1870.5" y1="-116" x2="1870.5" y2="973" stroke="#1F1F24"/>
<line opacity="0.05" x1="1880.5" y1="-116" x2="1880.5" y2="973" stroke="#1F1F24"/>
<line opacity="0.05" x1="1890.5" y1="-116" x2="1890.5" y2="973" stroke="#1F1F24"/>
<line opacity="0.05" x1="1900.5" y1="-116" x2="1900.5" y2="973" stroke="#1F1F24"/>
<line opacity="0.05" x1="1910.5" y1="-116" x2="1910.5" y2="973" stroke="#1F1F24"/>
<line opacity="0.05" x1="-40" y1="851.5" x2="1960" y2="851.5" stroke="#1F1F24"/>
<line opacity="0.05" x1="-40" y1="841.5" x2="1960" y2="841.5" stroke="#1F1F24"/>
<line opacity="0.05" x1="-40" y1="831.5" x2="1960" y2="831.5" stroke="#1F1F24"/>
<line opacity="0.05" x1="-40" y1="821.5" x2="1960" y2="821.5" stroke="#1F1F24"/>
<line opacity="0.05" x1="-40" y1="811.5" x2="1960" y2="811.5" stroke="#1F1F24"/>
<line opacity="0.05" x1="-40" y1="801.5" x2="1960" y2="801.5" stroke="#1F1F24"/>
<line opacity="0.05" x1="-40" y1="791.5" x2="1960" y2="791.5" stroke="#1F1F24"/>
<line opacity="0.05" x1="-40" y1="781.5" x2="1960" y2="781.5" stroke="#1F1F24"/>
<line opacity="0.05" x1="-40" y1="771.5" x2="1960" y2="771.5" stroke="#1F1F24"/>
<line opacity="0.05" x1="-40" y1="761.5" x2="1960" y2="761.5" stroke="#1F1F24"/>
<line opacity="0.05" x1="-40" y1="751.5" x2="1960" y2="751.5" stroke="#1F1F24"/>
<line opacity="0.05" x1="-40" y1="741.5" x2="1960" y2="741.5" stroke="#1F1F24"/>
<line opacity="0.05" x1="-40" y1="731.5" x2="1960" y2="731.5" stroke="#1F1F24"/>
<line opacity="0.05" x1="-40" y1="721.5" x2="1960" y2="721.5" stroke="#1F1F24"/>
<line opacity="0.05" x1="-40" y1="711.5" x2="1960" y2="711.5" stroke="#1F1F24"/>
<line opacity="0.05" x1="-40" y1="701.5" x2="1960" y2="701.5" stroke="#1F1F24"/>
<line opacity="0.05" x1="-40" y1="691.5" x2="1960" y2="691.5" stroke="#1F1F24"/>
<line opacity="0.05" x1="-40" y1="681.5" x2="1960" y2="681.5" stroke="#1F1F24"/>
<line opacity="0.05" x1="-40" y1="671.5" x2="1960" y2="671.5" stroke="#1F1F24"/>
<line opacity="0.05" x1="-40" y1="661.5" x2="1960" y2="661.5" stroke="#1F1F24"/>
<line opacity="0.05" x1="-40" y1="651.5" x2="1960" y2="651.5" stroke="#1F1F24"/>
<line opacity="0.05" x1="-40" y1="641.5" x2="1960" y2="641.5" stroke="#1F1F24"/>
<line opacity="0.05" x1="-40" y1="631.5" x2="1960" y2="631.5" stroke="#1F1F24"/>
<line opacity="0.05" x1="-40" y1="621.5" x2="1960" y2="621.5" stroke="#1F1F24"/>
<line opacity="0.05" x1="-40" y1="611.5" x2="1960" y2="611.5" stroke="#1F1F24"/>
<line opacity="0.05" x1="-40" y1="601.5" x2="1960" y2="601.5" stroke="#1F1F24"/>
<line opacity="0.05" x1="-40" y1="591.5" x2="1960" y2="591.5" stroke="#1F1F24"/>
<line opacity="0.05" x1="-40" y1="581.5" x2="1960" y2="581.5" stroke="#1F1F24"/>
<line opacity="0.05" x1="-40" y1="571.5" x2="1960" y2="571.5" stroke="#1F1F24"/>
<line opacity="0.05" x1="-40" y1="561.5" x2="1960" y2="561.5" stroke="#1F1F24"/>
<line opacity="0.05" x1="-40" y1="551.5" x2="1960" y2="551.5" stroke="#1F1F24"/>
<line opacity="0.05" x1="-40" y1="541.5" x2="1960" y2="541.5" stroke="#1F1F24"/>
<line opacity="0.05" x1="-40" y1="531.5" x2="1960" y2="531.5" stroke="#1F1F24"/>
<line opacity="0.05" x1="-40" y1="521.5" x2="1960" y2="521.5" stroke="#1F1F24"/>
<line opacity="0.05" x1="-40" y1="511.5" x2="1960" y2="511.5" stroke="#1F1F24"/>
<line opacity="0.05" x1="-40" y1="501.5" x2="1960" y2="501.5" stroke="#1F1F24"/>
<line opacity="0.05" x1="-40" y1="491.5" x2="1960" y2="491.5" stroke="#1F1F24"/>
<line opacity="0.05" x1="-40" y1="481.5" x2="1960" y2="481.5" stroke="#1F1F24"/>
<line opacity="0.05" x1="-40" y1="471.5" x2="1960" y2="471.5" stroke="#1F1F24"/>
<line opacity="0.05" x1="-40" y1="461.5" x2="1960" y2="461.5" stroke="#1F1F24"/>
<line opacity="0.05" x1="-40" y1="451.5" x2="1960" y2="451.5" stroke="#1F1F24"/>
<line opacity="0.05" x1="-40" y1="441.5" x2="1960" y2="441.5" stroke="#1F1F24"/>
<line opacity="0.05" x1="-40" y1="431.5" x2="1960" y2="431.5" stroke="#1F1F24"/>
<line opacity="0.05" x1="-40" y1="421.5" x2="1960" y2="421.5" stroke="#1F1F24"/>
<line opacity="0.05" x1="-40" y1="411.5" x2="1960" y2="411.5" stroke="#1F1F24"/>
<line opacity="0.05" x1="-40" y1="401.5" x2="1960" y2="401.5" stroke="#1F1F24"/>
<line opacity="0.05" x1="-40" y1="391.5" x2="1960" y2="391.5" stroke="#1F1F24"/>
<line opacity="0.05" x1="-40" y1="381.5" x2="1960" y2="381.5" stroke="#1F1F24"/>
<line opacity="0.05" x1="-40" y1="371.5" x2="1960" y2="371.5" stroke="#1F1F24"/>
<line opacity="0.05" x1="-40" y1="361.5" x2="1960" y2="361.5" stroke="#1F1F24"/>
<line opacity="0.05" x1="-40" y1="351.5" x2="1960" y2="351.5" stroke="#1F1F24"/>
<line opacity="0.05" x1="-40" y1="341.5" x2="1960" y2="341.5" stroke="#1F1F24"/>
<line opacity="0.05" x1="-40" y1="331.5" x2="1960" y2="331.5" stroke="#1F1F24"/>
<line opacity="0.05" x1="-40" y1="321.5" x2="1960" y2="321.5" stroke="#1F1F24"/>
<line opacity="0.05" x1="-40" y1="311.5" x2="1960" y2="311.5" stroke="#1F1F24"/>
<line opacity="0.05" x1="-40" y1="301.5" x2="1960" y2="301.5" stroke="#1F1F24"/>
<line opacity="0.05" x1="-40" y1="291.5" x2="1960" y2="291.5" stroke="#1F1F24"/>
<line opacity="0.05" x1="-40" y1="281.5" x2="1960" y2="281.5" stroke="#1F1F24"/>
<line opacity="0.05" x1="-40" y1="271.5" x2="1960" y2="271.5" stroke="#1F1F24"/>
<line opacity="0.05" x1="-40" y1="261.5" x2="1960" y2="261.5" stroke="#1F1F24"/>
<line opacity="0.05" x1="-40" y1="251.5" x2="1960" y2="251.5" stroke="#1F1F24"/>
<line opacity="0.05" x1="-40" y1="241.5" x2="1960" y2="241.5" stroke="#1F1F24"/>
<line opacity="0.05" x1="-40" y1="231.5" x2="1960" y2="231.5" stroke="#1F1F24"/>
<line opacity="0.05" x1="-40" y1="221.5" x2="1960" y2="221.5" stroke="#1F1F24"/>
<line opacity="0.05" x1="-40" y1="211.5" x2="1960" y2="211.5" stroke="#1F1F24"/>
<line opacity="0.05" x1="-40" y1="201.5" x2="1960" y2="201.5" stroke="#1F1F24"/>
<line opacity="0.05" x1="-40" y1="191.5" x2="1960" y2="191.5" stroke="#1F1F24"/>
<line opacity="0.05" x1="-40" y1="181.5" x2="1960" y2="181.5" stroke="#1F1F24"/>
<line opacity="0.05" x1="-40" y1="171.5" x2="1960" y2="171.5" stroke="#1F1F24"/>
<line opacity="0.05" x1="-40" y1="161.5" x2="1960" y2="161.5" stroke="#1F1F24"/>
<line opacity="0.05" x1="-40" y1="151.5" x2="1960" y2="151.5" stroke="#1F1F24"/>
<line opacity="0.05" x1="-40" y1="141.5" x2="1960" y2="141.5" stroke="#1F1F24"/>
<line opacity="0.05" x1="-40" y1="131.5" x2="1960" y2="131.5" stroke="#1F1F24"/>
<line opacity="0.05" x1="-40" y1="121.5" x2="1960" y2="121.5" stroke="#1F1F24"/>
<line opacity="0.05" x1="-40" y1="111.5" x2="1960" y2="111.5" stroke="#1F1F24"/>
<line opacity="0.05" x1="-40" y1="101.5" x2="1960" y2="101.5" stroke="#1F1F24"/>
<line opacity="0.05" x1="-40" y1="91.5" x2="1960" y2="91.4999" stroke="#1F1F24"/>
<line opacity="0.05" x1="-40" y1="81.5" x2="1960" y2="81.4999" stroke="#1F1F24"/>
<line opacity="0.05" x1="-40" y1="71.5" x2="1960" y2="71.4999" stroke="#1F1F24"/>
<line opacity="0.05" x1="-40" y1="61.5" x2="1960" y2="61.4999" stroke="#1F1F24"/>
<line opacity="0.05" x1="-40" y1="51.5" x2="1960" y2="51.4999" stroke="#1F1F24"/>
<line opacity="0.05" x1="-40" y1="41.5" x2="1960" y2="41.4999" stroke="#1F1F24"/>
<line opacity="0.05" x1="-40" y1="31.5" x2="1960" y2="31.4999" stroke="#1F1F24"/>
<line opacity="0.05" x1="-40" y1="21.5" x2="1960" y2="21.4999" stroke="#1F1F24"/>
<line opacity="0.05" x1="-40" y1="11.5" x2="1960" y2="11.4999" stroke="#1F1F24"/>
<line opacity="0.05" x1="-40" y1="1.5" x2="1960" y2="1.49991" stroke="#1F1F24"/>
</g>
<line opacity="0.05" x1="0.5" y1="-2" x2="0.5" y2="1087" stroke="#1F1F24"/>
<line opacity="0.05" x1="40.5" y1="-2" x2="40.5" y2="1087" stroke="#1F1F24"/>
<line opacity="0.05" x1="80.5" y1="-2" x2="80.5" y2="1087" stroke="#1F1F24"/>
<line opacity="0.05" x1="120.5" y1="-2" x2="120.5" y2="1087" stroke="#1F1F24"/>
<line opacity="0.05" x1="160.5" y1="-2" x2="160.5" y2="1087" stroke="#1F1F24"/>
<line opacity="0.05" x1="200.5" y1="-2" x2="200.5" y2="1087" stroke="#1F1F24"/>
<line opacity="0.05" x1="240.5" y1="-2" x2="240.5" y2="1087" stroke="#1F1F24"/>
<line opacity="0.05" x1="280.5" y1="-2" x2="280.5" y2="1087" stroke="#1F1F24"/>
<line opacity="0.05" x1="320.5" y1="-2" x2="320.5" y2="1087" stroke="#1F1F24"/>
<line opacity="0.05" x1="360.5" y1="-2" x2="360.5" y2="1087" stroke="#1F1F24"/>
<line opacity="0.05" x1="400.5" y1="-2" x2="400.5" y2="1087" stroke="#1F1F24"/>
<line opacity="0.05" x1="440.5" y1="-2" x2="440.5" y2="1087" stroke="#1F1F24"/>
<line opacity="0.05" x1="480.5" y1="-2" x2="480.5" y2="1087" stroke="#1F1F24"/>
<line opacity="0.05" x1="520.5" y1="-2" x2="520.5" y2="1087" stroke="#1F1F24"/>
<line opacity="0.05" x1="560.5" y1="-2" x2="560.5" y2="1087" stroke="#1F1F24"/>
<line opacity="0.05" x1="600.5" y1="-2" x2="600.5" y2="1087" stroke="#1F1F24"/>
<line opacity="0.05" x1="640.5" y1="-2" x2="640.5" y2="1087" stroke="#1F1F24"/>
<line opacity="0.05" x1="680.5" y1="-2" x2="680.5" y2="1087" stroke="#1F1F24"/>
<line opacity="0.05" x1="720.5" y1="-2" x2="720.5" y2="1087" stroke="#1F1F24"/>
<line opacity="0.05" x1="760.5" y1="-2" x2="760.5" y2="1087" stroke="#1F1F24"/>
<line opacity="0.05" x1="800.5" y1="-2" x2="800.5" y2="1087" stroke="#1F1F24"/>
<line opacity="0.05" x1="840.5" y1="-2" x2="840.5" y2="1087" stroke="#1F1F24"/>
<line opacity="0.05" x1="880.5" y1="-2" x2="880.5" y2="1087" stroke="#1F1F24"/>
<line opacity="0.05" x1="920.5" y1="-2" x2="920.5" y2="1087" stroke="#1F1F24"/>
<line opacity="0.05" x1="960.5" y1="-2" x2="960.5" y2="1087" stroke="#1F1F24"/>
<line opacity="0.05" x1="1000.5" y1="-2" x2="1000.5" y2="1087" stroke="#1F1F24"/>
<line opacity="0.05" x1="1040.5" y1="-2" x2="1040.5" y2="1087" stroke="#1F1F24"/>
<line opacity="0.05" x1="1080.5" y1="-2" x2="1080.5" y2="1087" stroke="#1F1F24"/>
<line opacity="0.05" x1="1120.5" y1="-2" x2="1120.5" y2="1087" stroke="#1F1F24"/>
<line opacity="0.05" x1="1160.5" y1="-2" x2="1160.5" y2="1087" stroke="#1F1F24"/>
<line opacity="0.05" x1="1200.5" y1="-2" x2="1200.5" y2="1087" stroke="#1F1F24"/>
<line opacity="0.05" x1="1240.5" y1="-2" x2="1240.5" y2="1087" stroke="#1F1F24"/>
<line opacity="0.05" x1="1280.5" y1="-2" x2="1280.5" y2="1087" stroke="#1F1F24"/>
<line opacity="0.05" x1="1320.5" y1="-2" x2="1320.5" y2="1087" stroke="#1F1F24"/>
<line opacity="0.05" x1="1360.5" y1="-2" x2="1360.5" y2="1087" stroke="#1F1F24"/>
<line opacity="0.05" x1="1400.5" y1="-2" x2="1400.5" y2="1087" stroke="#1F1F24"/>
<line opacity="0.05" x1="1440.5" y1="-2" x2="1440.5" y2="1087" stroke="#1F1F24"/>
<line opacity="0.05" x1="1480.5" y1="-2" x2="1480.5" y2="1087" stroke="#1F1F24"/>
<line opacity="0.05" x1="1520.5" y1="-2" x2="1520.5" y2="1087" stroke="#1F1F24"/>
<line opacity="0.05" x1="1560.5" y1="-2" x2="1560.5" y2="1087" stroke="#1F1F24"/>
<line opacity="0.05" x1="1600.5" y1="-2" x2="1600.5" y2="1087" stroke="#1F1F24"/>
<line opacity="0.05" x1="1640.5" y1="-2" x2="1640.5" y2="1087" stroke="#1F1F24"/>
<line opacity="0.05" x1="1680.5" y1="-2" x2="1680.5" y2="1087" stroke="#1F1F24"/>
<line opacity="0.05" x1="1720.5" y1="-2" x2="1720.5" y2="1087" stroke="#1F1F24"/>
<line opacity="0.05" x1="1760.5" y1="-2" x2="1760.5" y2="1087" stroke="#1F1F24"/>
<line opacity="0.05" x1="1800.5" y1="-2" x2="1800.5" y2="1087" stroke="#1F1F24"/>
<line opacity="0.05" x1="1840.5" y1="-2" x2="1840.5" y2="1087" stroke="#1F1F24"/>
<line opacity="0.05" x1="1880.5" y1="-2" x2="1880.5" y2="1087" stroke="#1F1F24"/>
<line opacity="0.05" x1="-40" y1="822" x2="1960" y2="822" stroke="#1F1F24"/>
<line opacity="0.05" x1="-40" y1="782" x2="1960" y2="782" stroke="#1F1F24"/>
<line opacity="0.05" x1="-40" y1="742" x2="1960" y2="742" stroke="#1F1F24"/>
<line opacity="0.05" x1="-40" y1="702" x2="1960" y2="702" stroke="#1F1F24"/>
<line opacity="0.05" x1="-40" y1="662" x2="1960" y2="662" stroke="#1F1F24"/>
<line opacity="0.05" x1="-40" y1="622" x2="1960" y2="622" stroke="#1F1F24"/>
<line opacity="0.05" x1="-40" y1="582" x2="1960" y2="582" stroke="#1F1F24"/>
<line opacity="0.05" x1="-40" y1="542" x2="1960" y2="542" stroke="#1F1F24"/>
<line opacity="0.05" x1="-40" y1="502" x2="1960" y2="502" stroke="#1F1F24"/>
<line opacity="0.05" x1="-40" y1="462" x2="1960" y2="462" stroke="#1F1F24"/>
<line opacity="0.05" x1="-40" y1="422" x2="1960" y2="422" stroke="#1F1F24"/>
<line opacity="0.05" x1="-40" y1="382" x2="1960" y2="382" stroke="#1F1F24"/>
<line opacity="0.05" x1="-40" y1="342" x2="1960" y2="342" stroke="#1F1F24"/>
<line opacity="0.05" x1="-40" y1="302" x2="1960" y2="302" stroke="#1F1F24"/>
<line opacity="0.05" x1="-40" y1="262" x2="1960" y2="262" stroke="#1F1F24"/>
<line opacity="0.05" x1="-40" y1="222" x2="1960" y2="222" stroke="#1F1F24"/>
<line opacity="0.05" x1="-40" y1="182" x2="1960" y2="182" stroke="#1F1F24"/>
<line opacity="0.05" x1="-40" y1="142" x2="1960" y2="142" stroke="#1F1F24"/>
<line opacity="0.05" x1="-40" y1="102" x2="1960" y2="102" stroke="#1F1F24"/>
<line opacity="0.05" x1="-40" y1="62" x2="1960" y2="61.9999" stroke="#1F1F24"/>
<line opacity="0.05" x1="-40" y1="22" x2="1960" y2="21.9999" stroke="#1F1F24"/>
<g opacity="0.3">
<path fill-rule="evenodd" clip-rule="evenodd" d="M1920 22.5H1921V21.5L1920 21.5V22.5ZM1881 22.5V21.5L1880 21.5V22.5H1881ZM1880 61.5H1881V62.5H1880V61.5ZM1841 22.5V21.5L1840 21.5V22.5L1841 22.5ZM1840 61.5H1841V62.5H1840V61.5ZM1801 22.5V21.5L1800 21.5V22.5H1801ZM1800 61.5H1801V62.5H1800V61.5ZM1761 22.5V21.5L1760 21.5V22.5H1761ZM1760 61.5H1761V62.5H1760V61.5ZM1721 22.5V21.5L1720 21.5V22.5H1721ZM1720 61.5H1721V62.5H1720V61.5ZM1681 22.5V21.5L1680 21.5V22.5L1681 22.5ZM1680 61.5H1681V62.5H1680V61.5ZM1641 22.5V21.5L1640 21.5V22.5H1641ZM1640 61.5H1641V62.5H1640V61.5ZM1601 22.5V21.5L1600 21.5V22.5H1601ZM1600 61.5H1601V62.5H1600V61.5ZM1561 22.5V21.5L1560 21.5V22.5H1561ZM1560 61.5H1561V62.5H1560V61.5ZM1521 22.5V21.5L1520 21.5V22.5L1521 22.5ZM1520 61.5H1521V62.5H1520V61.5ZM1481 22.5V21.5L1480 21.5V22.5H1481ZM1480 61.5H1481V62.5H1480V61.5ZM1441 22.5V21.5L1440 21.5V22.5H1441ZM1440 61.5H1441V62.5H1440V61.5ZM1401 22.5V21.5L1400 21.5V22.5H1401ZM1400 61.5H1401V62.5H1400V61.5ZM1361 22.5V21.5L1360 21.5V22.5L1361 22.5ZM1360 61.5H1361V62.5H1360V61.5ZM1321 22.5V21.5L1320 21.5V22.5H1321ZM1320 61.5H1321V62.5H1320V61.5ZM1281 22.5V21.5L1280 21.5V22.5H1281ZM1280 61.5H1281V62.5H1280V61.5ZM1241 22.5V21.5L1240 21.5V22.5H1241ZM1240 61.5H1241V62.5H1240V61.5ZM1201 22.5V21.5L1200 21.5V22.5L1201 22.5ZM1200 61.5H1201V62.5H1200V61.5ZM1161 22.5V21.5L1160 21.5V22.5H1161ZM1160 61.5H1161V62.5H1160V61.5ZM1121 22.5V21.5L1120 21.5V22.5H1121ZM1120 61.5H1121V62.5H1120V61.5ZM1081 22.5V21.5L1080 21.5V22.5H1081ZM1080 61.5H1081V62.5H1080V61.5ZM1041 22.5V21.5L1040 21.5V22.5L1041 22.5ZM1040 61.5H1041V62.5H1040V61.5ZM1001 22.5V21.5L1000 21.5V22.5H1001ZM1000 61.5H1001V62.5H1000V61.5ZM961 22.5V21.5L960 21.5V22.5H961ZM960 61.5H961V62.5H960V61.5ZM921 22.5V21.5L920 21.5V22.5H921ZM920 61.5H921V62.5H920V61.5ZM881 22.5V21.5L880 21.5V22.5H881ZM880 61.5H881V62.5H880V61.5ZM841 22.5V21.5L840 21.5V22.5L841 22.5ZM840 61.5H841V62.5H840V61.5ZM801 22.5V21.5L800 21.5V22.5H801ZM800 61.5H801V62.5H800V61.5ZM761 22.5V21.5L760 21.5V22.5H761ZM760 61.5H761V62.5H760V61.5ZM721 22.5V21.5L720 21.5V22.5H721ZM720 61.5H721V62.5H720V61.5ZM681 22.5V21.5L680 21.5V22.5L681 22.5ZM680 61.5H681V62.5H680V61.5ZM641 22.5V21.5L640 21.5V22.5H641ZM640 61.5H641V62.5H640V61.5ZM601 22.5V21.5L600 21.5V22.5H601ZM600 61.5H601V62.5H600V61.5ZM561 22.5V21.5L560 21.5V22.5H561ZM560 61.5H561V62.5H560V61.5ZM521 22.5V21.5L520 21.5V22.5L521 22.5ZM520 61.5H521V62.5H520V61.5ZM481 22.5V21.5L480 21.5V22.5H481ZM480 61.5H481V62.5H480V61.5ZM441 22.5V21.5L440 21.5V22.5H441ZM440 61.5H441V62.5H440V61.5ZM401 22.5V21.5L400 21.5V22.5H401ZM400 61.5H401V62.5H400V61.5ZM361 22.5V21.5L360 21.5V22.5L361 22.5ZM360 61.5H361V62.5H360V61.5ZM321 22.5001V21.5001L320 21.5001V22.5001H321ZM320 61.5H321V62.5H320V61.5ZM281 22.5001V21.5001L280 21.5001V22.5001H281ZM280 61.5H281V62.5H280V61.5ZM241 22.5001V21.5001L240 21.5001V22.5001H241ZM240 61.5001H241V62.5001H240V61.5001ZM201 22.5001V21.5001L200 21.5001V22.5001L201 22.5001ZM200 61.5001H201V62.5001H200V61.5001ZM161 22.5001V21.5001L160 21.5001V22.5001H161ZM160 61.5001H161V62.5001H160V61.5001ZM121 22.5001V21.5001L120 21.5001V22.5001H121ZM120 61.5001H121V62.5001H120V61.5001ZM81 22.5001V21.5001L80 21.5001V22.5001H81ZM80 61.5001H81V62.5001H80V61.5001ZM41 22.5001V21.5001L40 21.5001V22.5001L41 22.5001ZM40 61.5001H41V62.5001H40V61.5001ZM0.999969 22.5001V21.5001L-3.05176e-05 21.5001V22.5001H0.999969ZM-3.05176e-05 61.5001H0.999969V62.5001H-3.05176e-05V61.5001ZM-39 22.5001V21.5001L-40 21.5001L-40 22.5001H-39ZM0.999969 1062.5H-3.05176e-05V1061.5H0.999969V1062.5ZM41 1062.5H40V1061.5H41V1062.5ZM81 1062.5H80V1061.5H81V1062.5ZM121 1062.5H120V1061.5H121V1062.5ZM161 1062.5H160V1061.5H161V1062.5ZM201 1062.5H200V1061.5H201V1062.5ZM241 1062.5H240V1061.5H241V1062.5ZM281 1062.5H280V1061.5H281V1062.5ZM321 1062.5H320V1061.5H321V1062.5ZM361 1062.5H360V1061.5H361V1062.5ZM401 1062.5H400V1061.5H401V1062.5ZM441 1062.5H440V1061.5H441V1062.5ZM481 1062.5H480V1061.5H481V1062.5ZM521 1062.5H520V1061.5H521V1062.5ZM561 1062.5H560V1061.5H561V1062.5ZM601 1062.5H600V1061.5H601V1062.5ZM641 1062.5H640V1061.5H641V1062.5ZM681 1062.5H680V1061.5H681V1062.5ZM721 1062.5H720V1061.5H721V1062.5ZM761 1062.5H760V1061.5H761V1062.5ZM801 1062.5H800V1061.5H801V1062.5ZM841 1062.5H840V1061.5H841V1062.5ZM881 1062.5H880V1061.5H881V1062.5ZM921 1062.5H920V1061.5H921V1062.5ZM961 1062.5L960 1062.5V1061.5L961 1061.5V1062.5ZM1001 1062.5H1000V1061.5H1001V1062.5ZM1041 1062.5H1040V1061.5H1041V1062.5ZM1081 1062.5H1080V1061.5H1081V1062.5ZM1121 1062.5H1120V1061.5H1121V1062.5ZM1161 1062.5H1160V1061.5H1161V1062.5ZM1201 1062.5H1200V1061.5H1201V1062.5ZM1241 1062.5H1240V1061.5H1241V1062.5ZM1281 1062.5H1280V1061.5H1281V1062.5ZM1321 1062.5H1320V1061.5H1321V1062.5ZM1361 1062.5H1360V1061.5H1361V1062.5ZM1401 1062.5H1400V1061.5H1401V1062.5ZM1441 1062.5H1440V1061.5H1441V1062.5ZM1481 1062.5H1480V1061.5H1481V1062.5ZM1521 1062.5H1520V1061.5H1521V1062.5ZM1561 1062.5H1560V1061.5H1561V1062.5ZM1601 1062.5H1600V1061.5H1601V1062.5ZM1641 1062.5H1640V1061.5H1641V1062.5ZM1681 1062.5H1680V1061.5H1681V1062.5ZM1721 1062.5H1720V1061.5H1721V1062.5ZM1761 1062.5H1760V1061.5H1761V1062.5ZM1801 1062.5H1800V1061.5H1801V1062.5ZM1841 1062.5H1840V1061.5H1841V1062.5ZM1881 1062.5H1880V1061.5H1881V1062.5ZM1921 1062.5H1920V1061.5H1921V1062.5ZM1921 1022.5H1920V1021.5H1921V1022.5ZM1921 982.5H1920V981.5H1921V982.5ZM1921 942.5H1920V941.5H1921V942.5ZM1921 902.5H1920V901.5H1921V902.5ZM1921 862.5H1920V861.5H1921V862.5ZM1921 822.5H1920V821.5H1921V822.5ZM1921 782.5H1920V781.5H1921V782.5ZM1921 742.5H1920V741.5H1921V742.5ZM1921 702.5H1920V701.5H1921V702.5ZM1921 662.5H1920V661.5H1921V662.5ZM1921 622.5H1920V621.5H1921V622.5ZM1921 582.5H1920V581.5H1921V582.5ZM1921 542.5H1920V541.5H1921V542.5ZM1921 502.5H1920V501.5H1921V502.5ZM1921 462.5H1920V461.5H1921V462.5ZM1921 422.5H1920V421.5H1921V422.5ZM1921 382.5H1920V381.5H1921V382.5ZM1921 342.5H1920V341.5H1921V342.5ZM1921 302.5H1920V301.5H1921V302.5ZM1921 262.5H1920V261.5H1921V262.5ZM1921 222.5H1920V221.5H1921V222.5ZM1921 182.5H1920V181.5H1921V182.5ZM1921 142.5H1920V141.5H1921V142.5ZM1921 102.5H1920V101.5H1921V102.5ZM1921 62.5H1920V61.5H1921V62.5ZM1881 101.5H1880V102.5H1881V101.5ZM1881 141.5H1880V142.5H1881V141.5ZM1881 181.5H1880V182.5H1881V181.5ZM1881 221.5H1880V222.5H1881V221.5ZM1881 261.5H1880V262.5H1881V261.5ZM1881 301.5H1880V302.5H1881V301.5ZM1881 341.5H1880V342.5H1881V341.5ZM1881 381.5H1880V382.5H1881V381.5ZM1881 421.5H1880V422.5H1881V421.5ZM1881 461.5H1880V462.5H1881V461.5ZM1881 501.5H1880V502.5H1881V501.5ZM1881 541.5H1880V542.5H1881V541.5ZM1881 581.5H1880V582.5H1881V581.5ZM1881 621.5H1880V622.5H1881V621.5ZM1881 661.5H1880V662.5H1881V661.5ZM1881 701.5H1880V702.5H1881V701.5ZM1881 741.5H1880V742.5H1881V741.5ZM1881 781.5H1880V782.5H1881V781.5ZM1881 821.5H1880V822.5H1881V821.5ZM1881 861.5H1880V862.5H1881V861.5ZM1881 901.5H1880V902.5H1881V901.5ZM1881 941.5H1880V942.5H1881V941.5ZM1881 981.5H1880V982.5H1881V981.5ZM1881 1021.5H1880V1022.5H1881V1021.5ZM1841 1022.5V1021.5H1840V1022.5H1841ZM1801 1022.5V1021.5H1800V1022.5H1801ZM1761 1022.5V1021.5H1760V1022.5H1761ZM1721 1022.5V1021.5H1720V1022.5H1721ZM1681 1022.5V1021.5H1680V1022.5H1681ZM1641 1022.5V1021.5H1640V1022.5H1641ZM1601 1022.5V1021.5H1600V1022.5H1601ZM1561 1022.5V1021.5H1560V1022.5H1561ZM1521 1022.5V1021.5H1520V1022.5H1521ZM1481 1022.5V1021.5H1480V1022.5H1481ZM1441 1022.5V1021.5H1440V1022.5H1441ZM1401 1022.5V1021.5H1400V1022.5H1401ZM1361 1022.5V1021.5H1360V1022.5H1361ZM1321 1022.5V1021.5H1320V1022.5H1321ZM1281 1022.5V1021.5H1280V1022.5H1281ZM1241 1022.5V1021.5H1240V1022.5H1241ZM1201 1022.5V1021.5H1200V1022.5H1201ZM1161 1022.5V1021.5H1160V1022.5H1161ZM1121 1022.5V1021.5H1120V1022.5H1121ZM1081 1022.5V1021.5H1080V1022.5H1081ZM1041 1022.5V1021.5H1040V1022.5H1041ZM1001 1022.5V1021.5H1000V1022.5H1001ZM961 1022.5V1021.5H960V1022.5H961ZM921 1022.5V1021.5H920V1022.5H921ZM881 1022.5V1021.5H880V1022.5H881ZM841 1022.5V1021.5H840V1022.5H841ZM801 1022.5V1021.5H800V1022.5H801ZM761 1022.5V1021.5H760V1022.5H761ZM721 1022.5V1021.5H720V1022.5H721ZM681 1022.5V1021.5H680V1022.5H681ZM641 1022.5V1021.5H640V1022.5H641ZM601 1022.5V1021.5H600V1022.5H601ZM561 1022.5V1021.5H560V1022.5H561ZM521 1022.5V1021.5H520V1022.5H521ZM481 1022.5V1021.5H480V1022.5H481ZM441 1022.5V1021.5H440V1022.5H441ZM401 1022.5V1021.5H400V1022.5H401ZM361 1022.5V1021.5H360V1022.5H361ZM321 1022.5V1021.5H320V1022.5H321ZM281 1022.5V1021.5H280V1022.5H281ZM241 1022.5V1021.5H240V1022.5H241ZM201 1022.5V1021.5H200V1022.5H201ZM161 1022.5V1021.5H160V1022.5H161ZM121 1022.5V1021.5H120V1022.5H121ZM81 1022.5V1021.5H80V1022.5H81ZM41 1022.5V1021.5H40V1022.5H41ZM0.999969 1022.5V1021.5H-3.05176e-05V1022.5H0.999969ZM-39 1022.5V1021.5H-40L-40 1022.5H-39ZM-3.05176e-05 982.5H0.999969V981.5H-3.05176e-05V982.5ZM-39 981.5V982.5H-40L-40 981.5H-39ZM-3.05176e-05 942.5H0.999969V941.5H-3.05176e-05V942.5ZM-39 941.5V942.5H-40L-40 941.5H-39ZM-3.05176e-05 902.5H0.999969V901.5H-3.05176e-05V902.5ZM-39 901.5V902.5H-40L-40 901.5H-39ZM-3.05176e-05 862.5H0.999969V861.5H-3.05176e-05V862.5ZM-39 861.5V862.5H-40L-40 861.5H-39ZM-3.05176e-05 822.5H0.999969V821.5H-3.05176e-05V822.5ZM-39 821.5V822.5H-40L-40 821.5H-39ZM-3.05176e-05 782.5H0.999969V781.5H-3.05176e-05V782.5ZM-39 781.5V782.5H-40L-40 781.5H-39ZM-3.05176e-05 742.5H0.999969V741.5H-3.05176e-05V742.5ZM-39 741.5V742.5H-40L-40 741.5H-39ZM-3.05176e-05 702.5H0.999969V701.5H-3.05176e-05V702.5ZM-39 701.5V702.5H-40L-40 701.5H-39ZM-3.05176e-05 662.5H0.999969V661.5H-3.05176e-05V662.5ZM-39 661.5V662.5H-40L-40 661.5H-39ZM-3.05176e-05 622.5H0.999969V621.5H-3.05176e-05V622.5ZM-39 621.5V622.5H-40L-40 621.5H-39ZM-3.05176e-05 582.5H0.999969V581.5H-3.05176e-05V582.5ZM-39 581.5V582.5H-40L-40 581.5H-39ZM-3.05176e-05 542.5H0.999969V541.5H-3.05176e-05V542.5ZM-39 541.5V542.5H-40L-40 541.5H-39ZM-3.05176e-05 502.5H0.999969V501.5H-3.05176e-05V502.5ZM-39 501.5V502.5H-40L-40 501.5H-39ZM-3.05176e-05 462.5H0.999969V461.5H-3.05176e-05V462.5ZM-39 461.5V462.5H-40L-40 461.5H-39ZM-3.05176e-05 422.5H0.999969V421.5H-3.05176e-05V422.5ZM-39 421.5V422.5H-40L-40 421.5H-39ZM-3.05176e-05 382.5H0.999969V381.5H-3.05176e-05V382.5ZM-39 381.5V382.5H-40L-40 381.5H-39ZM-3.05176e-05 342.5H0.999969V341.5H-3.05176e-05V342.5ZM-39 341.5V342.5H-40L-40 341.5H-39ZM-3.05176e-05 302.5H0.999969V301.5H-3.05176e-05V302.5ZM-39 301.5V302.5H-40L-40 301.5H-39ZM-3.05176e-05 262.5H0.999969V261.5H-3.05176e-05V262.5ZM-39 261.5V262.5H-40L-40 261.5H-39ZM-3.05176e-05 222.5H0.999969V221.5H-3.05176e-05V222.5ZM-39 221.5V222.5H-40L-40 221.5H-39ZM-3.05176e-05 182.5H0.999969V181.5H-3.05176e-05V182.5ZM-39 181.5V182.5H-40L-40 181.5H-39ZM-3.05176e-05 142.5H0.999969V141.5H-3.05176e-05V142.5ZM-39 141.5V142.5H-40L-40 141.5H-39ZM-3.05176e-05 102.5H0.999969V101.5H-3.05176e-05V102.5ZM-39 101.5V102.5H-40L-40 101.5H-39ZM-39 62.5001H-40L-40 61.5001H-39V62.5001ZM40 101.5V102.5H41V101.5H40ZM80 101.5V102.5H81V101.5H80ZM120 101.5V102.5H121V101.5H120ZM160 101.5V102.5H161V101.5H160ZM200 101.5V102.5H201V101.5H200ZM240 101.5V102.5H241V101.5H240ZM280 101.5V102.5H281V101.5H280ZM320 101.5V102.5H321V101.5H320ZM360 101.5V102.5H361V101.5H360ZM400 101.5V102.5H401V101.5H400ZM440 101.5V102.5H441V101.5H440ZM480 101.5V102.5H481V101.5H480ZM520 101.5V102.5H521V101.5H520ZM560 101.5V102.5H561V101.5H560ZM600 101.5V102.5H601V101.5H600ZM640 101.5V102.5H641V101.5H640ZM680 101.5V102.5H681V101.5H680ZM720 101.5V102.5H721V101.5H720ZM760 101.5V102.5H761V101.5H760ZM800 101.5V102.5H801V101.5H800ZM840 101.5V102.5H841V101.5H840ZM880 101.5V102.5H881V101.5H880ZM920 101.5V102.5H921V101.5H920ZM960 101.5V102.5H961V101.5H960ZM1000 101.5V102.5H1001V101.5H1000ZM1040 101.5V102.5H1041V101.5H1040ZM1080 101.5V102.5H1081V101.5H1080ZM1120 101.5V102.5H1121V101.5H1120ZM1160 101.5V102.5H1161V101.5H1160ZM1200 101.5V102.5H1201V101.5H1200ZM1240 101.5V102.5H1241V101.5H1240ZM1280 101.5V102.5H1281V101.5H1280ZM1320 101.5V102.5H1321V101.5H1320ZM1360 101.5V102.5H1361V101.5H1360ZM1400 101.5V102.5H1401V101.5H1400ZM1440 101.5V102.5H1441V101.5H1440ZM1480 101.5V102.5H1481V101.5H1480ZM1520 101.5V102.5H1521V101.5H1520ZM1560 101.5V102.5H1561V101.5H1560ZM1600 101.5V102.5H1601V101.5H1600ZM1640 101.5V102.5H1641V101.5H1640ZM1680 101.5V102.5H1681V101.5H1680ZM1720 101.5V102.5H1721V101.5H1720ZM1760 101.5V102.5H1761V101.5H1760ZM1800 101.5V102.5H1801V101.5H1800ZM1840 101.5V102.5H1841V101.5H1840ZM1841 141.5H1840V142.5H1841V141.5ZM1841 181.5H1840V182.5H1841V181.5ZM1841 221.5H1840V222.5H1841V221.5ZM1841 261.5H1840V262.5H1841V261.5ZM1841 301.5H1840V302.5H1841V301.5ZM1841 341.5H1840V342.5H1841V341.5ZM1841 381.5H1840V382.5H1841V381.5ZM1841 421.5H1840V422.5H1841V421.5ZM1841 461.5H1840V462.5H1841V461.5ZM1841 501.5H1840V502.5H1841V501.5ZM1841 541.5H1840V542.5H1841V541.5ZM1841 581.5H1840V582.5H1841V581.5ZM1841 621.5H1840V622.5H1841V621.5ZM1841 661.5H1840V662.5H1841V661.5ZM1841 701.5H1840V702.5H1841V701.5ZM1841 741.5H1840V742.5H1841V741.5ZM1841 781.5H1840V782.5H1841V781.5ZM1841 821.5H1840V822.5H1841V821.5ZM1841 861.5H1840V862.5H1841V861.5ZM1841 901.5H1840V902.5H1841V901.5ZM1841 941.5H1840V942.5H1841V941.5ZM1841 981.5H1840V982.5H1841V981.5ZM1801 982.5V981.5H1800V982.5H1801ZM1761 982.5V981.5H1760V982.5H1761ZM1721 982.5V981.5H1720V982.5H1721ZM1681 982.5V981.5H1680V982.5H1681ZM1641 982.5V981.5H1640V982.5H1641ZM1601 982.5V981.5H1600V982.5H1601ZM1561 982.5V981.5H1560V982.5H1561ZM1521 982.5V981.5H1520V982.5H1521ZM1481 982.5V981.5H1480V982.5H1481ZM1441 982.5V981.5H1440V982.5H1441ZM1401 982.5V981.5H1400V982.5H1401ZM1361 982.5V981.5H1360V982.5H1361ZM1321 982.5V981.5H1320V982.5H1321ZM1281 982.5V981.5H1280V982.5H1281ZM1241 982.5V981.5H1240V982.5H1241ZM1201 982.5V981.5H1200V982.5H1201ZM1161 982.5V981.5H1160V982.5H1161ZM1121 982.5V981.5H1120V982.5H1121ZM1081 982.5V981.5H1080V982.5H1081ZM1041 982.5V981.5H1040V982.5H1041ZM1001 982.5V981.5H1000V982.5H1001ZM961 982.5V981.5H960V982.5H961ZM921 982.5V981.5H920V982.5H921ZM881 982.5V981.5H880V982.5H881ZM841 982.5V981.5H840V982.5H841ZM801 982.5V981.5H800V982.5H801ZM761 982.5V981.5H760V982.5H761ZM721 982.5V981.5H720V982.5H721ZM681 982.5V981.5H680V982.5H681ZM641 982.5V981.5H640V982.5H641ZM601 982.5V981.5H600V982.5H601ZM561 982.5V981.5H560V982.5H561ZM521 982.5V981.5H520V982.5H521ZM481 982.5V981.5H480V982.5H481ZM441 982.5V981.5H440V982.5H441ZM401 982.5V981.5H400V982.5H401ZM361 982.5V981.5H360V982.5H361ZM321 982.5V981.5H320V982.5H321ZM281 982.5V981.5H280V982.5H281ZM241 982.5V981.5H240V982.5H241ZM201 982.5V981.5H200V982.5H201ZM161 982.5V981.5H160V982.5H161ZM121 982.5V981.5H120V982.5H121ZM81 982.5V981.5H80V982.5H81ZM41 982.5V981.5H40V982.5H41ZM40 942.5H41V941.5H40V942.5ZM40 902.5H41V901.5H40V902.5ZM40 862.5H41V861.5H40V862.5ZM40 822.5H41V821.5H40V822.5ZM40 782.5H41V781.5H40V782.5ZM40 742.5H41V741.5H40V742.5ZM40 702.5H41V701.5H40V702.5ZM40 662.5H41V661.5H40V662.5ZM40 622.5H41V621.5H40V622.5ZM40 582.5H41V581.5H40V582.5ZM40 542.5H41V541.5H40V542.5ZM40 502.5H41V501.5H40V502.5ZM40 462.5H41V461.5H40V462.5ZM40 422.5H41V421.5H40V422.5ZM40 382.5H41V381.5H40V382.5ZM40 342.5H41V341.5H40V342.5ZM40 302.5H41V301.5H40V302.5ZM40 262.5H41V261.5H40V262.5ZM40 222.5H41V221.5H40V222.5ZM40 182.5H41V181.5H40V182.5ZM40 142.5H41V141.5H40V142.5ZM80 141.5V142.5H81V141.5H80ZM120 141.5V142.5H121V141.5H120ZM160 141.5V142.5H161V141.5H160ZM200 141.5V142.5H201V141.5H200ZM240 141.5V142.5H241V141.5H240ZM280 141.5V142.5H281V141.5H280ZM320 141.5V142.5H321V141.5H320ZM360 141.5V142.5H361V141.5H360ZM400 141.5V142.5H401V141.5H400ZM440 141.5V142.5H441V141.5H440ZM480 141.5V142.5H481V141.5H480ZM520 141.5V142.5H521V141.5H520ZM560 141.5V142.5H561V141.5H560ZM600 141.5V142.5H601V141.5H600ZM640 141.5V142.5H641V141.5H640ZM680 141.5V142.5H681V141.5H680ZM720 141.5V142.5H721V141.5H720ZM760 141.5V142.5H761V141.5H760ZM800 141.5V142.5H801V141.5H800ZM840 141.5V142.5H841V141.5H840ZM880 141.5V142.5H881V141.5H880ZM920 141.5V142.5H921V141.5H920ZM960 141.5V142.5H961V141.5H960ZM1000 141.5V142.5H1001V141.5H1000ZM1040 141.5V142.5H1041V141.5H1040ZM1080 141.5V142.5H1081V141.5H1080ZM1120 141.5V142.5H1121V141.5H1120ZM1160 141.5V142.5H1161V141.5H1160ZM1200 141.5V142.5H1201V141.5H1200ZM1240 141.5V142.5H1241V141.5H1240ZM1280 141.5V142.5H1281V141.5H1280ZM1320 141.5V142.5H1321V141.5H1320ZM1360 141.5V142.5H1361V141.5H1360ZM1400 141.5V142.5H1401V141.5H1400ZM1440 141.5V142.5H1441V141.5H1440ZM1480 141.5V142.5H1481V141.5H1480ZM1520 141.5V142.5H1521V141.5H1520ZM1560 141.5V142.5H1561V141.5H1560ZM1600 141.5V142.5H1601V141.5H1600ZM1640 141.5V142.5H1641V141.5H1640ZM1680 141.5V142.5H1681V141.5H1680ZM1720 141.5V142.5H1721V141.5H1720ZM1760 141.5V142.5H1761V141.5H1760ZM1800 141.5V142.5H1801V141.5H1800ZM1801 181.5H1800V182.5H1801V181.5ZM1801 221.5H1800V222.5H1801V221.5ZM1801 261.5H1800V262.5H1801V261.5ZM1801 301.5H1800V302.5H1801V301.5ZM1801 341.5H1800V342.5H1801V341.5ZM1801 381.5H1800V382.5H1801V381.5ZM1801 421.5H1800V422.5H1801V421.5ZM1801 461.5H1800V462.5H1801V461.5ZM1801 501.5H1800V502.5H1801V501.5ZM1801 541.5H1800V542.5H1801V541.5ZM1801 581.5H1800V582.5H1801V581.5ZM1801 621.5H1800V622.5H1801V621.5ZM1801 661.5H1800V662.5H1801V661.5ZM1801 701.5H1800V702.5H1801V701.5ZM1801 741.5H1800V742.5H1801V741.5ZM1801 781.5H1800V782.5H1801V781.5ZM1801 821.5H1800V822.5H1801V821.5ZM1801 861.5H1800V862.5H1801V861.5ZM1801 901.5H1800V902.5H1801V901.5ZM1801 941.5H1800V942.5H1801V941.5ZM1761 942.5V941.5H1760V942.5H1761ZM1721 942.5V941.5H1720V942.5H1721ZM1681 942.5V941.5H1680V942.5H1681ZM1641 942.5V941.5H1640V942.5H1641ZM1601 942.5V941.5H1600V942.5H1601ZM1561 942.5V941.5H1560V942.5H1561ZM1521 942.5V941.5H1520V942.5H1521ZM1481 942.5V941.5H1480V942.5H1481ZM1441 942.5V941.5H1440V942.5H1441ZM1401 942.5V941.5H1400V942.5H1401ZM1361 942.5V941.5H1360V942.5H1361ZM1321 942.5V941.5H1320V942.5H1321ZM1281 942.5V941.5H1280V942.5H1281ZM1241 942.5V941.5H1240V942.5H1241ZM1201 942.5V941.5H1200V942.5H1201ZM1161 942.5V941.5H1160V942.5H1161ZM1121 942.5V941.5H1120V942.5H1121ZM1081 942.5V941.5H1080V942.5H1081ZM1041 942.5V941.5H1040V942.5H1041ZM1001 942.5V941.5H1000V942.5H1001ZM961 942.5V941.5H960V942.5H961ZM921 942.5V941.5H920V942.5H921ZM881 942.5V941.5H880V942.5H881ZM841 942.5V941.5H840V942.5H841ZM801 942.5V941.5H800V942.5H801ZM761 942.5V941.5H760V942.5H761ZM721 942.5V941.5H720V942.5H721ZM681 942.5V941.5H680V942.5H681ZM641 942.5V941.5H640V942.5H641ZM601 942.5V941.5H600V942.5H601ZM561 942.5V941.5H560V942.5H561ZM521 942.5V941.5H520V942.5H521ZM481 942.5V941.5H480V942.5H481ZM441 942.5V941.5H440V942.5H441ZM401 942.5V941.5H400V942.5H401ZM361 942.5V941.5H360V942.5H361ZM321 942.5V941.5H320V942.5H321ZM281 942.5V941.5H280V942.5H281ZM241 942.5V941.5H240V942.5H241ZM201 942.5V941.5H200V942.5H201ZM161 942.5V941.5H160V942.5H161ZM121 942.5V941.5H120V942.5H121ZM81 942.5V941.5H80V942.5H81ZM80 902.5H81V901.5H80V902.5ZM80 862.5H81V861.5H80V862.5ZM80 822.5H81V821.5H80V822.5ZM80 782.5H81V781.5H80V782.5ZM80 742.5H81V741.5H80V742.5ZM80 702.5H81V701.5H80V702.5ZM80 662.5H81V661.5H80V662.5ZM80 622.5H81V621.5H80V622.5ZM80 582.5H81V581.5H80V582.5ZM80 542.5H81V541.5H80V542.5ZM80 502.5H81V501.5H80V502.5ZM80 462.5H81V461.5H80V462.5ZM80 422.5H81V421.5H80V422.5ZM80 382.5H81V381.5H80V382.5ZM80 342.5H81V341.5H80V342.5ZM80 302.5H81V301.5H80V302.5ZM80 262.5H81V261.5H80V262.5ZM80 222.5H81V221.5H80V222.5ZM80 182.5H81V181.5H80V182.5ZM120 181.5V182.5H121V181.5H120ZM160 181.5V182.5H161V181.5H160ZM200 181.5V182.5H201V181.5H200ZM240 181.5V182.5H241V181.5H240ZM280 181.5V182.5H281V181.5H280ZM320 181.5V182.5H321V181.5H320ZM360 181.5V182.5H361V181.5H360ZM400 181.5V182.5H401V181.5H400ZM440 181.5V182.5H441V181.5H440ZM480 181.5V182.5H481V181.5H480ZM520 181.5V182.5H521V181.5H520ZM560 181.5V182.5H561V181.5H560ZM600 181.5V182.5H601V181.5H600ZM640 181.5V182.5H641V181.5H640ZM680 181.5V182.5H681V181.5H680ZM720 181.5V182.5H721V181.5H720ZM760 181.5V182.5H761V181.5H760ZM800 181.5V182.5H801V181.5H800ZM840 181.5V182.5H841V181.5H840ZM880 181.5V182.5H881V181.5H880ZM920 181.5V182.5H921V181.5H920ZM960 181.5V182.5H961V181.5H960ZM1000 181.5V182.5H1001V181.5H1000ZM1040 181.5V182.5H1041V181.5H1040ZM1080 181.5V182.5H1081V181.5H1080ZM1120 181.5V182.5H1121V181.5H1120ZM1160 181.5V182.5H1161V181.5H1160ZM1200 181.5V182.5H1201V181.5H1200ZM1240 181.5V182.5H1241V181.5H1240ZM1280 181.5V182.5H1281V181.5H1280ZM1320 181.5V182.5H1321V181.5H1320ZM1360 181.5V182.5H1361V181.5H1360ZM1400 181.5V182.5H1401V181.5H1400ZM1440 181.5V182.5H1441V181.5H1440ZM1480 181.5V182.5H1481V181.5H1480ZM1520 181.5V182.5H1521V181.5H1520ZM1560 181.5V182.5H1561V181.5H1560ZM1600 181.5V182.5H1601V181.5H1600ZM1640 181.5V182.5H1641V181.5H1640ZM1680 181.5V182.5H1681V181.5H1680ZM1720 181.5V182.5H1721V181.5H1720ZM1760 181.5V182.5H1761V181.5H1760ZM1761 221.5H1760V222.5H1761V221.5ZM1761 261.5H1760V262.5H1761V261.5ZM1761 301.5H1760V302.5H1761V301.5ZM1761 341.5H1760V342.5H1761V341.5ZM1761 381.5H1760V382.5H1761V381.5ZM1761 421.5H1760V422.5H1761V421.5ZM1761 461.5H1760V462.5H1761V461.5ZM1761 501.5H1760V502.5H1761V501.5ZM1761 541.5H1760V542.5H1761V541.5ZM1761 581.5H1760V582.5H1761V581.5ZM1761 621.5H1760V622.5H1761V621.5ZM1761 661.5H1760V662.5H1761V661.5ZM1761 701.5H1760V702.5H1761V701.5ZM1761 741.5H1760V742.5H1761V741.5ZM1761 781.5H1760V782.5H1761V781.5ZM1761 821.5H1760V822.5H1761V821.5ZM1761 861.5H1760V862.5H1761V861.5ZM1761 901.5H1760V902.5H1761V901.5ZM1721 902.5V901.5H1720V902.5H1721ZM1681 902.5V901.5H1680V902.5H1681ZM1641 902.5V901.5H1640V902.5H1641ZM1601 902.5V901.5H1600V902.5H1601ZM1561 902.5V901.5H1560V902.5H1561ZM1521 902.5V901.5H1520V902.5H1521ZM1481 902.5V901.5H1480V902.5H1481ZM1441 902.5V901.5H1440V902.5H1441ZM1401 902.5V901.5H1400V902.5H1401ZM1361 902.5V901.5H1360V902.5H1361ZM1321 902.5V901.5H1320V902.5H1321ZM1281 902.5V901.5H1280V902.5H1281ZM1241 902.5V901.5H1240V902.5H1241ZM1201 902.5V901.5H1200V902.5H1201ZM1161 902.5V901.5H1160V902.5H1161ZM1121 902.5V901.5H1120V902.5H1121ZM1081 902.5V901.5H1080V902.5H1081ZM1041 902.5V901.5H1040V902.5H1041ZM1001 902.5V901.5H1000V902.5H1001ZM961 902.5V901.5H960V902.5H961ZM921 902.5V901.5H920V902.5H921ZM881 902.5V901.5H880V902.5H881ZM841 902.5V901.5H840V902.5H841ZM801 902.5V901.5H800V902.5H801ZM761 902.5V901.5H760V902.5H761ZM721 902.5V901.5H720V902.5H721ZM681 902.5V901.5H680V902.5H681ZM641 902.5V901.5H640V902.5H641ZM601 902.5V901.5H600V902.5H601ZM561 902.5V901.5H560V902.5H561ZM521 902.5V901.5H520V902.5H521ZM481 902.5V901.5H480V902.5H481ZM441 902.5V901.5H440V902.5H441ZM401 902.5V901.5H400V902.5H401ZM361 902.5V901.5H360V902.5H361ZM321 902.5V901.5H320V902.5H321ZM281 902.5V901.5H280V902.5H281ZM241 902.5V901.5H240V902.5H241ZM201 902.5V901.5H200V902.5H201ZM161 902.5V901.5H160V902.5H161ZM121 902.5V901.5H120V902.5H121ZM120 862.5H121V861.5H120V862.5ZM120 822.5H121V821.5H120V822.5ZM120 782.5H121V781.5H120V782.5ZM120 742.5H121V741.5H120V742.5ZM120 702.5H121V701.5H120V702.5ZM120 662.5H121V661.5H120V662.5ZM120 622.5H121V621.5H120V622.5ZM120 582.5H121V581.5H120V582.5ZM120 542.5H121V541.5H120V542.5ZM120 502.5H121V501.5H120V502.5ZM120 462.5H121V461.5H120V462.5ZM120 422.5H121V421.5H120V422.5ZM120 382.5H121V381.5H120V382.5ZM120 342.5H121V341.5H120V342.5ZM120 302.5H121V301.5H120V302.5ZM120 262.5H121V261.5H120V262.5ZM120 222.5H121V221.5H120V222.5ZM160 221.5V222.5H161V221.5H160ZM200 221.5V222.5H201V221.5H200ZM240 221.5V222.5H241V221.5H240ZM280 221.5V222.5H281V221.5H280ZM320 221.5V222.5H321V221.5H320ZM360 221.5V222.5H361V221.5H360ZM400 221.5V222.5H401V221.5H400ZM440 221.5V222.5H441V221.5H440ZM480 221.5V222.5H481V221.5H480ZM520 221.5V222.5H521V221.5H520ZM560 221.5V222.5H561V221.5H560ZM600 221.5V222.5H601V221.5H600ZM640 221.5V222.5H641V221.5H640ZM680 221.5V222.5H681V221.5H680ZM720 221.5V222.5H721V221.5H720ZM760 221.5V222.5H761V221.5H760ZM800 221.5V222.5H801V221.5H800ZM840 221.5V222.5H841V221.5H840ZM880 221.5V222.5H881V221.5H880ZM920 221.5V222.5H921V221.5H920ZM960 221.5V222.5H961V221.5H960ZM1000 221.5V222.5H1001V221.5H1000ZM1040 221.5V222.5H1041V221.5H1040ZM1080 221.5V222.5H1081V221.5H1080ZM1120 221.5V222.5H1121V221.5H1120ZM1160 221.5V222.5H1161V221.5H1160ZM1200 221.5V222.5H1201V221.5H1200ZM1240 221.5V222.5H1241V221.5H1240ZM1280 221.5V222.5H1281V221.5H1280ZM1320 221.5V222.5H1321V221.5H1320ZM1360 221.5V222.5H1361V221.5H1360ZM1400 221.5V222.5H1401V221.5H1400ZM1440 221.5V222.5H1441V221.5H1440ZM1480 221.5V222.5H1481V221.5H1480ZM1520 221.5V222.5H1521V221.5H1520ZM1560 221.5V222.5H1561V221.5H1560ZM1600 221.5V222.5H1601V221.5H1600ZM1640 221.5V222.5H1641V221.5H1640ZM1680 221.5V222.5H1681V221.5H1680ZM1720 221.5V222.5H1721V221.5H1720ZM1721 261.5H1720V262.5H1721V261.5ZM1721 301.5H1720V302.5H1721V301.5ZM1721 341.5H1720V342.5H1721V341.5ZM1721 381.5H1720V382.5H1721V381.5ZM1721 421.5H1720V422.5H1721V421.5ZM1721 461.5H1720V462.5H1721V461.5ZM1721 501.5H1720V502.5H1721V501.5ZM1721 541.5H1720V542.5H1721V541.5ZM1721 581.5H1720V582.5H1721V581.5ZM1721 621.5H1720V622.5H1721V621.5ZM1721 661.5H1720V662.5H1721V661.5ZM1721 701.5H1720V702.5H1721V701.5ZM1721 741.5H1720V742.5H1721V741.5ZM1721 781.5H1720V782.5H1721V781.5ZM1721 821.5H1720V822.5H1721V821.5ZM1721 861.5H1720V862.5H1721V861.5ZM1681 862.5V861.5H1680V862.5H1681ZM1641 862.5V861.5H1640V862.5H1641ZM1601 862.5V861.5H1600V862.5H1601ZM1561 862.5V861.5H1560V862.5H1561ZM1521 862.5V861.5H1520V862.5H1521ZM1481 862.5V861.5H1480V862.5H1481ZM1441 862.5V861.5H1440V862.5H1441ZM1401 862.5V861.5H1400V862.5H1401ZM1361 862.5V861.5H1360V862.5H1361ZM1321 862.5V861.5H1320V862.5H1321ZM1281 862.5V861.5H1280V862.5H1281ZM1241 862.5V861.5H1240V862.5H1241ZM1201 862.5V861.5H1200V862.5H1201ZM1161 862.5V861.5H1160V862.5H1161ZM1121 862.5V861.5H1120V862.5H1121ZM1081 862.5V861.5H1080V862.5H1081ZM1041 862.5V861.5H1040V862.5H1041ZM1001 862.5V861.5H1000V862.5H1001ZM961 862.5V861.5H960V862.5H961ZM921 862.5V861.5H920V862.5H921ZM881 862.5V861.5H880V862.5H881ZM841 862.5V861.5H840V862.5H841ZM801 862.5V861.5H800V862.5H801ZM761 862.5V861.5H760V862.5H761ZM721 862.5V861.5H720V862.5H721ZM681 862.5V861.5H680V862.5H681ZM641 862.5V861.5H640V862.5H641ZM601 862.5V861.5H600V862.5H601ZM561 862.5V861.5H560V862.5H561ZM521 862.5V861.5H520V862.5H521ZM481 862.5V861.5H480V862.5H481ZM441 862.5V861.5H440V862.5H441ZM401 862.5V861.5H400V862.5H401ZM361 862.5V861.5H360V862.5H361ZM321 862.5V861.5H320V862.5H321ZM281 862.5V861.5H280V862.5H281ZM241 862.5V861.5H240V862.5H241ZM201 862.5V861.5H200V862.5H201ZM161 862.5V861.5H160V862.5H161ZM160 822.5H161V821.5H160V822.5ZM160 782.5H161V781.5H160V782.5ZM160 742.5H161V741.5H160V742.5ZM160 702.5H161V701.5H160V702.5ZM160 662.5H161V661.5H160V662.5ZM160 622.5H161V621.5H160V622.5ZM160 582.5H161V581.5H160V582.5ZM160 542.5H161V541.5H160V542.5ZM160 502.5H161V501.5H160V502.5ZM160 462.5H161V461.5H160V462.5ZM160 422.5H161V421.5H160V422.5ZM160 382.5H161V381.5H160V382.5ZM160 342.5H161V341.5H160V342.5ZM160 302.5H161V301.5H160V302.5ZM160 262.5H161V261.5H160V262.5ZM200 261.5V262.5H201V261.5H200ZM240 261.5V262.5H241V261.5H240ZM280 261.5V262.5H281V261.5H280ZM320 261.5V262.5H321V261.5H320ZM360 261.5V262.5H361V261.5H360ZM400 261.5V262.5H401V261.5H400ZM440 261.5V262.5H441V261.5H440ZM480 261.5V262.5H481V261.5H480ZM520 261.5V262.5H521V261.5H520ZM560 261.5V262.5H561V261.5H560ZM600 261.5V262.5H601V261.5H600ZM640 261.5V262.5H641V261.5H640ZM680 261.5V262.5H681V261.5H680ZM720 261.5V262.5H721V261.5H720ZM760 261.5V262.5H761V261.5H760ZM800 261.5V262.5H801V261.5H800ZM840 261.5V262.5H841V261.5H840ZM880 261.5V262.5H881V261.5H880ZM920 261.5V262.5H921V261.5H920ZM960 261.5V262.5H961V261.5H960ZM1000 261.5V262.5H1001V261.5H1000ZM1040 261.5V262.5H1041V261.5H1040ZM1080 261.5V262.5H1081V261.5H1080ZM1120 261.5V262.5H1121V261.5H1120ZM1160 261.5V262.5H1161V261.5H1160ZM1200 261.5V262.5H1201V261.5H1200ZM1240 261.5V262.5H1241V261.5H1240ZM1280 261.5V262.5H1281V261.5H1280ZM1320 261.5V262.5H1321V261.5H1320ZM1360 261.5V262.5H1361V261.5H1360ZM1400 261.5V262.5H1401V261.5H1400ZM1440 261.5V262.5H1441V261.5H1440ZM1480 261.5V262.5H1481V261.5H1480ZM1520 261.5V262.5H1521V261.5H1520ZM1560 261.5V262.5H1561V261.5H1560ZM1600 261.5V262.5H1601V261.5H1600ZM1640 261.5V262.5H1641V261.5H1640ZM1680 261.5V262.5H1681V261.5H1680ZM1681 301.5H1680V302.5H1681V301.5ZM1681 341.5H1680V342.5H1681V341.5ZM1681 381.5H1680V382.5H1681V381.5ZM1681 421.5H1680V422.5H1681V421.5ZM1681 461.5H1680V462.5H1681V461.5ZM1681 501.5H1680V502.5H1681V501.5ZM1681 541.5H1680V542.5H1681V541.5ZM1681 581.5H1680V582.5H1681V581.5ZM1681 621.5H1680V622.5H1681V621.5ZM1681 661.5H1680V662.5H1681V661.5ZM1681 701.5H1680V702.5H1681V701.5ZM1681 741.5H1680V742.5H1681V741.5ZM1681 781.5H1680V782.5H1681V781.5ZM1681 821.5H1680V822.5H1681V821.5ZM1641 822.5V821.5H1640V822.5H1641ZM1601 822.5V821.5H1600V822.5H1601ZM1561 822.5V821.5H1560V822.5H1561ZM1521 822.5V821.5H1520V822.5H1521ZM1481 822.5V821.5H1480V822.5H1481ZM1441 822.5V821.5H1440V822.5H1441ZM1401 822.5V821.5H1400V822.5H1401ZM1361 822.5V821.5H1360V822.5H1361ZM1321 822.5V821.5H1320V822.5H1321ZM1281 822.5V821.5H1280V822.5H1281ZM1241 822.5V821.5H1240V822.5H1241ZM1201 822.5V821.5H1200V822.5H1201ZM1161 822.5V821.5H1160V822.5H1161ZM1121 822.5V821.5H1120V822.5H1121ZM1081 822.5V821.5H1080V822.5H1081ZM1041 822.5V821.5H1040V822.5H1041ZM1001 822.5V821.5H1000V822.5H1001ZM961 822.5V821.5H960V822.5H961ZM921 822.5V821.5H920V822.5H921ZM881 822.5V821.5H880V822.5H881ZM841 822.5V821.5H840V822.5H841ZM801 822.5V821.5H800V822.5H801ZM761 822.5V821.5H760V822.5H761ZM721 822.5V821.5H720V822.5H721ZM681 822.5V821.5H680V822.5H681ZM641 822.5V821.5H640V822.5H641ZM601 822.5V821.5H600V822.5H601ZM561 822.5V821.5H560V822.5H561ZM521 822.5V821.5H520V822.5H521ZM481 822.5V821.5H480V822.5H481ZM441 822.5V821.5H440V822.5H441ZM401 822.5V821.5H400V822.5H401ZM361 822.5V821.5H360V822.5H361ZM321 822.5V821.5H320V822.5H321ZM281 822.5V821.5H280V822.5H281ZM241 822.5V821.5H240V822.5H241ZM201 822.5V821.5H200V822.5H201ZM200 782.5H201V781.5H200V782.5ZM200 742.5H201V741.5H200V742.5ZM200 702.5H201V701.5H200V702.5ZM200 662.5H201V661.5H200V662.5ZM200 622.5H201V621.5H200V622.5ZM200 582.5H201V581.5H200V582.5ZM200 542.5H201V541.5H200V542.5ZM200 502.5H201V501.5H200V502.5ZM200 462.5H201V461.5H200V462.5ZM200 422.5H201V421.5H200V422.5ZM200 382.5H201V381.5H200V382.5ZM200 342.5H201V341.5H200V342.5ZM200 302.5H201V301.5H200V302.5ZM240 301.5V302.5H241V301.5H240ZM280 301.5V302.5H281V301.5H280ZM320 301.5V302.5H321V301.5H320ZM360 301.5V302.5H361V301.5H360ZM400 301.5V302.5H401V301.5H400ZM440 301.5V302.5H441V301.5H440ZM480 301.5V302.5H481V301.5H480ZM520 301.5V302.5H521V301.5H520ZM560 301.5V302.5H561V301.5H560ZM600 301.5V302.5H601V301.5H600ZM640 301.5V302.5H641V301.5H640ZM680 301.5V302.5H681V301.5H680ZM720 301.5V302.5H721V301.5H720ZM760 301.5V302.5H761V301.5H760ZM800 301.5V302.5H801V301.5H800ZM840 301.5V302.5H841V301.5H840ZM880 301.5V302.5H881V301.5H880ZM920 301.5V302.5H921V301.5H920ZM960 301.5V302.5H961V301.5H960ZM1000 301.5V302.5H1001V301.5H1000ZM1040 301.5V302.5H1041V301.5H1040ZM1080 301.5V302.5H1081V301.5H1080ZM1120 301.5V302.5H1121V301.5H1120ZM1160 301.5V302.5H1161V301.5H1160ZM1200 301.5V302.5H1201V301.5H1200ZM1240 301.5V302.5H1241V301.5H1240ZM1280 301.5V302.5H1281V301.5H1280ZM1320 301.5V302.5H1321V301.5H1320ZM1360 301.5V302.5H1361V301.5H1360ZM1400 301.5V302.5H1401V301.5H1400ZM1440 301.5V302.5H1441V301.5H1440ZM1480 301.5V302.5H1481V301.5H1480ZM1520 301.5V302.5H1521V301.5H1520ZM1560 301.5V302.5H1561V301.5H1560ZM1600 301.5V302.5H1601V301.5H1600ZM1640 301.5V302.5H1641V301.5H1640ZM1641 341.5H1640V342.5H1641V341.5ZM1641 381.5H1640V382.5H1641V381.5ZM1641 421.5H1640V422.5H1641V421.5ZM1641 461.5H1640V462.5H1641V461.5ZM1641 501.5H1640V502.5H1641V501.5ZM1641 541.5H1640V542.5H1641V541.5ZM1641 581.5H1640V582.5H1641V581.5ZM1641 621.5H1640V622.5H1641V621.5ZM1641 661.5H1640V662.5H1641V661.5ZM1641 701.5H1640V702.5H1641V701.5ZM1641 741.5H1640V742.5H1641V741.5ZM1641 781.5H1640V782.5H1641V781.5ZM1601 782.5V781.5H1600V782.5H1601ZM1561 782.5V781.5H1560V782.5H1561ZM1521 782.5V781.5H1520V782.5H1521ZM1481 782.5V781.5H1480V782.5H1481ZM1441 782.5V781.5H1440V782.5H1441ZM1401 782.5V781.5H1400V782.5H1401ZM1361 782.5V781.5H1360V782.5H1361ZM1321 782.5V781.5H1320V782.5H1321ZM1281 782.5V781.5H1280V782.5H1281ZM1241 782.5V781.5H1240V782.5H1241ZM1201 782.5V781.5H1200V782.5H1201ZM1161 782.5V781.5H1160V782.5H1161ZM1121 782.5V781.5H1120V782.5H1121ZM1081 782.5V781.5H1080V782.5H1081ZM1041 782.5V781.5H1040V782.5H1041ZM1001 782.5V781.5H1000V782.5H1001ZM961 782.5V781.5H960V782.5H961ZM921 782.5V781.5H920V782.5H921ZM881 782.5V781.5H880V782.5H881ZM841 782.5V781.5H840V782.5H841ZM801 782.5V781.5H800V782.5H801ZM761 782.5V781.5H760V782.5H761ZM721 782.5V781.5H720V782.5H721ZM681 782.5V781.5H680V782.5H681ZM641 782.5V781.5H640V782.5H641ZM601 782.5V781.5H600V782.5H601ZM561 782.5V781.5H560V782.5H561ZM521 782.5V781.5H520V782.5H521ZM481 782.5V781.5H480V782.5H481ZM441 782.5V781.5H440V782.5H441ZM401 782.5V781.5H400V782.5H401ZM361 782.5V781.5H360V782.5H361ZM321 782.5V781.5H320V782.5H321ZM281 782.5V781.5H280V782.5H281ZM241 782.5V781.5H240V782.5H241ZM240 742.5H241V741.5H240V742.5ZM240 702.5H241V701.5H240V702.5ZM240 662.5H241V661.5H240V662.5ZM240 622.5H241V621.5H240V622.5ZM240 582.5H241V581.5H240V582.5ZM240 542.5H241V541.5H240V542.5ZM240 502.5H241V501.5H240V502.5ZM240 462.5H241V461.5H240V462.5ZM240 422.5H241V421.5H240V422.5ZM240 382.5H241V381.5H240V382.5ZM240 342.5H241V341.5H240V342.5ZM280 341.5V342.5H281V341.5H280ZM320 341.5V342.5H321V341.5H320ZM360 341.5V342.5H361V341.5H360ZM400 341.5V342.5H401V341.5H400ZM440 341.5V342.5H441V341.5H440ZM480 341.5V342.5H481V341.5H480ZM520 341.5V342.5H521V341.5H520ZM560 341.5V342.5H561V341.5H560ZM600 341.5V342.5H601V341.5H600ZM640 341.5V342.5H641V341.5H640ZM680 341.5V342.5H681V341.5H680ZM720 341.5V342.5H721V341.5H720ZM760 341.5V342.5H761V341.5H760ZM800 341.5V342.5H801V341.5H800ZM840 341.5V342.5H841V341.5H840ZM880 341.5V342.5H881V341.5H880ZM920 341.5V342.5H921V341.5H920ZM960 341.5V342.5H961V341.5H960ZM1000 341.5V342.5H1001V341.5H1000ZM1040 341.5V342.5H1041V341.5H1040ZM1080 341.5V342.5H1081V341.5H1080ZM1120 341.5V342.5H1121V341.5H1120ZM1160 341.5V342.5H1161V341.5H1160ZM1200 341.5V342.5H1201V341.5H1200ZM1240 341.5V342.5H1241V341.5H1240ZM1280 341.5V342.5H1281V341.5H1280ZM1320 341.5V342.5H1321V341.5H1320ZM1360 341.5V342.5H1361V341.5H1360ZM1400 341.5V342.5H1401V341.5H1400ZM1440 341.5V342.5H1441V341.5H1440ZM1480 341.5V342.5H1481V341.5H1480ZM1520 341.5V342.5H1521V341.5H1520ZM1560 341.5V342.5H1561V341.5H1560ZM1600 341.5V342.5H1601V341.5H1600ZM1601 381.5H1600V382.5H1601V381.5ZM1601 421.5H1600V422.5H1601V421.5ZM1601 461.5H1600V462.5H1601V461.5ZM1601 501.5H1600V502.5H1601V501.5ZM1601 541.5H1600V542.5H1601V541.5ZM1601 581.5H1600V582.5H1601V581.5ZM1601 621.5H1600V622.5H1601V621.5ZM1601 661.5H1600V662.5H1601V661.5ZM1601 701.5H1600V702.5H1601V701.5ZM1601 741.5H1600V742.5H1601V741.5ZM1561 742.5V741.5H1560V742.5H1561ZM1521 742.5V741.5H1520V742.5H1521ZM1481 742.5V741.5H1480V742.5H1481ZM1441 742.5V741.5H1440V742.5H1441ZM1401 742.5V741.5H1400V742.5H1401ZM1361 742.5V741.5H1360V742.5H1361ZM1321 742.5V741.5H1320V742.5H1321ZM1281 742.5V741.5H1280V742.5H1281ZM1241 742.5V741.5H1240V742.5H1241ZM1201 742.5V741.5H1200V742.5H1201ZM1161 742.5V741.5H1160V742.5H1161ZM1121 742.5V741.5H1120V742.5H1121ZM1081 742.5V741.5H1080V742.5H1081ZM1041 742.5V741.5H1040V742.5H1041ZM1001 742.5V741.5H1000V742.5H1001ZM961 742.5V741.5H960V742.5H961ZM921 742.5V741.5H920V742.5H921ZM881 742.5V741.5H880V742.5H881ZM841 742.5V741.5H840V742.5H841ZM801 742.5V741.5H800V742.5H801ZM761 742.5V741.5H760V742.5H761ZM721 742.5V741.5H720V742.5H721ZM681 742.5V741.5H680V742.5H681ZM641 742.5V741.5H640V742.5H641ZM601 742.5V741.5H600V742.5H601ZM561 742.5V741.5H560V742.5H561ZM521 742.5V741.5H520V742.5H521ZM481 742.5V741.5H480V742.5H481ZM441 742.5V741.5H440V742.5H441ZM401 742.5V741.5H400V742.5H401ZM361 742.5V741.5H360V742.5H361ZM321 742.5V741.5H320V742.5H321ZM281 742.5V741.5H280V742.5H281ZM280 702.5H281V701.5H280V702.5ZM280 662.5H281V661.5H280V662.5ZM280 622.5H281V621.5H280V622.5ZM280 582.5H281V581.5H280V582.5ZM280 542.5H281V541.5H280V542.5ZM280 502.5H281V501.5H280V502.5ZM280 462.5H281V461.5H280V462.5ZM280 422.5H281V421.5H280V422.5ZM280 382.5H281V381.5H280V382.5ZM320 381.5V382.5H321V381.5H320ZM360 381.5V382.5H361V381.5H360ZM400 381.5V382.5H401V381.5H400ZM440 381.5V382.5H441V381.5H440ZM480 381.5V382.5H481V381.5H480ZM520 381.5V382.5H521V381.5H520ZM560 381.5V382.5H561V381.5H560ZM600 381.5V382.5H601V381.5H600ZM640 381.5V382.5H641V381.5H640ZM680 381.5V382.5H681V381.5H680ZM720 381.5V382.5H721V381.5H720ZM760 381.5V382.5H761V381.5H760ZM800 381.5V382.5H801V381.5H800ZM840 381.5V382.5H841V381.5H840ZM880 381.5V382.5H881V381.5H880ZM920 381.5V382.5H921V381.5H920ZM960 381.5V382.5H961V381.5H960ZM1000 381.5V382.5H1001V381.5H1000ZM1040 381.5V382.5H1041V381.5H1040ZM1080 381.5V382.5H1081V381.5H1080ZM1120 381.5V382.5H1121V381.5H1120ZM1160 381.5V382.5H1161V381.5H1160ZM1200 381.5V382.5H1201V381.5H1200ZM1240 381.5V382.5H1241V381.5H1240ZM1280 381.5V382.5H1281V381.5H1280ZM1320 381.5V382.5H1321V381.5H1320ZM1360 381.5V382.5H1361V381.5H1360ZM1400 381.5V382.5H1401V381.5H1400ZM1440 381.5V382.5H1441V381.5H1440ZM1480 381.5V382.5H1481V381.5H1480ZM1520 381.5V382.5H1521V381.5H1520ZM1560 381.5V382.5H1561V381.5H1560ZM1561 421.5H1560V422.5H1561V421.5ZM1561 461.5H1560V462.5H1561V461.5ZM1561 501.5H1560V502.5H1561V501.5ZM1561 541.5H1560V542.5H1561V541.5ZM1561 581.5H1560V582.5H1561V581.5ZM1561 621.5H1560V622.5H1561V621.5ZM1561 661.5H1560V662.5H1561V661.5ZM1561 701.5H1560V702.5H1561V701.5ZM1521 702.5V701.5H1520V702.5H1521ZM1481 702.5V701.5H1480V702.5H1481ZM1441 702.5V701.5H1440V702.5H1441ZM1401 702.5V701.5H1400V702.5H1401ZM1361 702.5V701.5H1360V702.5H1361ZM1321 702.5V701.5H1320V702.5H1321ZM1281 702.5V701.5H1280V702.5H1281ZM1241 702.5V701.5H1240V702.5H1241ZM1201 702.5V701.5H1200V702.5H1201ZM1161 702.5V701.5H1160V702.5H1161ZM1121 702.5V701.5H1120V702.5H1121ZM1081 702.5V701.5H1080V702.5H1081ZM1041 702.5V701.5H1040V702.5H1041ZM1001 702.5V701.5H1000V702.5H1001ZM961 702.5V701.5H960V702.5H961ZM921 702.5V701.5H920V702.5H921ZM881 702.5V701.5H880V702.5H881ZM841 702.5V701.5H840V702.5H841ZM801 702.5V701.5H800V702.5H801ZM761 702.5V701.5H760V702.5H761ZM721 702.5V701.5H720V702.5H721ZM681 702.5V701.5H680V702.5H681ZM641 702.5V701.5H640V702.5H641ZM601 702.5V701.5H600V702.5H601ZM561 702.5V701.5H560V702.5H561ZM521 702.5V701.5H520V702.5H521ZM481 702.5V701.5H480V702.5H481ZM441 702.5V701.5H440V702.5H441ZM401 702.5V701.5H400V702.5H401ZM361 702.5V701.5H360V702.5H361ZM321 702.5V701.5H320V702.5H321ZM320 662.5H321V661.5H320V662.5ZM320 622.5H321V621.5H320V622.5ZM320 582.5H321V581.5H320V582.5ZM320 542.5H321V541.5H320V542.5ZM320 502.5H321V501.5H320V502.5ZM320 462.5H321V461.5H320V462.5ZM320 422.5H321V421.5H320V422.5ZM360 421.5V422.5H361V421.5H360ZM400 421.5V422.5H401V421.5H400ZM440 421.5V422.5H441V421.5H440ZM480 421.5V422.5H481V421.5H480ZM520 421.5V422.5H521V421.5H520ZM560 421.5V422.5H561V421.5H560ZM600 421.5V422.5H601V421.5H600ZM640 421.5V422.5H641V421.5H640ZM680 421.5V422.5H681V421.5H680ZM720 421.5V422.5H721V421.5H720ZM760 421.5V422.5H761V421.5H760ZM800 421.5V422.5H801V421.5H800ZM840 421.5V422.5H841V421.5H840ZM880 421.5V422.5H881V421.5H880ZM920 421.5V422.5H921V421.5H920ZM960 421.5V422.5H961V421.5H960ZM1000 421.5V422.5H1001V421.5H1000ZM1040 421.5V422.5H1041V421.5H1040ZM1080 421.5V422.5H1081V421.5H1080ZM1120 421.5V422.5H1121V421.5H1120ZM1160 421.5V422.5H1161V421.5H1160ZM1200 421.5V422.5H1201V421.5H1200ZM1240 421.5V422.5H1241V421.5H1240ZM1280 421.5V422.5H1281V421.5H1280ZM1320 421.5V422.5H1321V421.5H1320ZM1360 421.5V422.5H1361V421.5H1360ZM1400 421.5V422.5H1401V421.5H1400ZM1440 421.5V422.5H1441V421.5H1440ZM1480 421.5V422.5H1481V421.5H1480ZM1520 421.5V422.5H1521V421.5H1520ZM1521 461.5H1520V462.5H1521V461.5ZM1521 501.5H1520V502.5H1521V501.5ZM1521 541.5H1520V542.5H1521V541.5ZM1521 581.5H1520V582.5H1521V581.5ZM1521 621.5H1520V622.5H1521V621.5ZM1521 661.5H1520V662.5H1521V661.5ZM1481 662.5V661.5H1480V662.5H1481ZM1441 662.5V661.5H1440V662.5H1441ZM1401 662.5V661.5H1400V662.5H1401ZM1361 662.5V661.5H1360V662.5H1361ZM1321 662.5V661.5H1320V662.5H1321ZM1281 662.5V661.5H1280V662.5H1281ZM1241 662.5V661.5H1240V662.5H1241ZM1201 662.5V661.5H1200V662.5H1201ZM1161 662.5V661.5H1160V662.5H1161ZM1121 662.5V661.5H1120V662.5H1121ZM1081 662.5V661.5H1080V662.5H1081ZM1041 662.5V661.5H1040V662.5H1041ZM1001 662.5V661.5H1000V662.5H1001ZM961 662.5V661.5H960V662.5H961ZM921 662.5V661.5H920V662.5H921ZM881 662.5V661.5H880V662.5H881ZM841 662.5V661.5H840V662.5H841ZM801 662.5V661.5H800V662.5H801ZM761 662.5V661.5H760V662.5H761ZM721 662.5V661.5H720V662.5H721ZM681 662.5V661.5H680V662.5H681ZM641 662.5V661.5H640V662.5H641ZM601 662.5V661.5H600V662.5H601ZM561 662.5V661.5H560V662.5H561ZM521 662.5V661.5H520V662.5H521ZM481 662.5V661.5H480V662.5H481ZM441 662.5V661.5H440V662.5H441ZM401 662.5V661.5H400V662.5H401ZM361 662.5V661.5H360V662.5H361ZM360 622.5H361V621.5H360V622.5ZM360 582.5H361V581.5H360V582.5ZM360 542.5H361V541.5H360V542.5ZM360 502.5H361V501.5H360V502.5ZM360 462.5H361V461.5H360V462.5ZM400 461.5V462.5H401V461.5H400ZM440 461.5V462.5H441V461.5H440ZM480 461.5V462.5H481V461.5H480ZM520 461.5V462.5H521V461.5H520ZM560 461.5V462.5H561V461.5H560ZM600 461.5V462.5H601V461.5H600ZM640 461.5V462.5H641V461.5H640ZM680 461.5V462.5H681V461.5H680ZM720 461.5V462.5H721V461.5H720ZM760 461.5V462.5H761V461.5H760ZM800 461.5V462.5H801V461.5H800ZM840 461.5V462.5H841V461.5H840ZM880 461.5V462.5H881V461.5H880ZM920 461.5V462.5H921V461.5H920ZM960 461.5V462.5H961V461.5H960ZM1000 461.5V462.5H1001V461.5H1000ZM1040 461.5V462.5H1041V461.5H1040ZM1080 461.5V462.5H1081V461.5H1080ZM1120 461.5V462.5H1121V461.5H1120ZM1160 461.5V462.5H1161V461.5H1160ZM1200 461.5V462.5H1201V461.5H1200ZM1240 461.5V462.5H1241V461.5H1240ZM1280 461.5V462.5H1281V461.5H1280ZM1320 461.5V462.5H1321V461.5H1320ZM1360 461.5V462.5H1361V461.5H1360ZM1400 461.5V462.5H1401V461.5H1400ZM1440 461.5V462.5H1441V461.5H1440ZM1480 461.5V462.5H1481V461.5H1480ZM1481 501.5H1480V502.5H1481V501.5ZM1481 541.5H1480V542.5H1481V541.5ZM1481 581.5H1480V582.5H1481V581.5ZM1481 621.5H1480V622.5H1481V621.5ZM1441 622.5V621.5H1440V622.5H1441ZM1401 622.5V621.5H1400V622.5H1401ZM1361 622.5V621.5H1360V622.5H1361ZM1321 622.5V621.5H1320V622.5H1321ZM1281 622.5V621.5H1280V622.5H1281ZM1241 622.5V621.5H1240V622.5H1241ZM1201 622.5V621.5H1200V622.5H1201ZM1161 622.5V621.5H1160V622.5H1161ZM1121 622.5V621.5H1120V622.5H1121ZM1081 622.5V621.5H1080V622.5H1081ZM1041 622.5V621.5H1040V622.5H1041ZM1001 622.5V621.5H1000V622.5H1001ZM961 622.5V621.5H960V622.5H961ZM921 622.5V621.5H920V622.5H921ZM881 622.5V621.5H880V622.5H881ZM841 622.5V621.5H840V622.5H841ZM801 622.5V621.5H800V622.5H801ZM761 622.5V621.5H760V622.5H761ZM721 622.5V621.5H720V622.5H721ZM681 622.5V621.5H680V622.5H681ZM641 622.5V621.5H640V622.5H641ZM601 622.5V621.5H600V622.5H601ZM561 622.5V621.5H560V622.5H561ZM521 622.5V621.5H520V622.5H521ZM481 622.5V621.5H480V622.5H481ZM441 622.5V621.5H440V622.5H441ZM401 622.5V621.5H400V622.5H401ZM400 582.5H401V581.5H400V582.5ZM400 542.5H401V541.5H400V542.5ZM400 502.5H401V501.5H400V502.5ZM440 501.5V502.5H441V501.5H440ZM480 501.5V502.5H481V501.5H480ZM520 501.5V502.5H521V501.5H520ZM560 501.5V502.5H561V501.5H560ZM600 501.5V502.5H601V501.5H600ZM640 501.5V502.5H641V501.5H640ZM680 501.5V502.5H681V501.5H680ZM720 501.5V502.5H721V501.5H720ZM760 501.5V502.5H761V501.5H760ZM800 501.5V502.5H801V501.5H800ZM840 501.5V502.5H841V501.5H840ZM880 501.5V502.5H881V501.5H880ZM920 501.5V502.5H921V501.5H920ZM960 501.5V502.5H961V501.5H960ZM1000 501.5V502.5H1001V501.5H1000ZM1040 501.5V502.5H1041V501.5H1040ZM1080 501.5V502.5H1081V501.5H1080ZM1120 501.5V502.5H1121V501.5H1120ZM1160 501.5V502.5H1161V501.5H1160ZM1200 501.5V502.5H1201V501.5H1200ZM1240 501.5V502.5H1241V501.5H1240ZM1280 501.5V502.5H1281V501.5H1280ZM1320 501.5V502.5H1321V501.5H1320ZM1360 501.5V502.5H1361V501.5H1360ZM1400 501.5V502.5H1401V501.5H1400ZM1440 501.5V502.5H1441V501.5H1440ZM1441 541.5H1440V542.5H1441V541.5ZM1441 581.5H1440V582.5H1441V581.5ZM1401 582.5V581.5H1400V582.5H1401ZM1361 582.5V581.5H1360V582.5H1361ZM1321 582.5V581.5H1320V582.5H1321ZM1281 582.5V581.5H1280V582.5H1281ZM1241 582.5V581.5H1240V582.5H1241ZM1201 582.5V581.5H1200V582.5H1201ZM1161 582.5V581.5H1160V582.5H1161ZM1121 582.5V581.5H1120V582.5H1121ZM1081 582.5V581.5H1080V582.5H1081ZM1041 582.5V581.5H1040V582.5H1041ZM1001 582.5V581.5H1000V582.5H1001ZM961 582.5V581.5H960V582.5H961ZM921 582.5V581.5H920V582.5H921ZM881 582.5V581.5H880V582.5H881ZM841 582.5V581.5H840V582.5H841ZM801 582.5V581.5H800V582.5H801ZM761 582.5V581.5H760V582.5H761ZM721 582.5V581.5H720V582.5H721ZM681 582.5V581.5H680V582.5H681ZM641 582.5V581.5H640V582.5H641ZM601 582.5V581.5H600V582.5H601ZM561 582.5V581.5H560V582.5H561ZM521 582.5V581.5H520V582.5H521ZM481 582.5V581.5H480V582.5H481ZM441 582.5V581.5H440V582.5H441ZM440 542.5H441V541.5H440V542.5ZM480 541.5V542.5H481V541.5H480ZM520 541.5V542.5H521V541.5H520ZM560 541.5V542.5H561V541.5H560ZM600 541.5V542.5H601V541.5H600ZM640 541.5V542.5H641V541.5H640ZM680 541.5V542.5H681V541.5H680ZM720 541.5V542.5H721V541.5H720ZM760 541.5V542.5H761V541.5H760ZM800 541.5V542.5H801V541.5H800ZM840 541.5V542.5H841V541.5H840ZM880 541.5V542.5H881V541.5H880ZM920 541.5V542.5H921V541.5H920ZM960 541.5V542.5H961V541.5H960ZM1000 541.5V542.5H1001V541.5H1000ZM1040 541.5V542.5H1041V541.5H1040ZM1080 541.5V542.5H1081V541.5H1080ZM1120 541.5V542.5H1121V541.5H1120ZM1160 541.5V542.5H1161V541.5H1160ZM1200 541.5V542.5H1201V541.5H1200ZM1240 541.5V542.5H1241V541.5H1240ZM1280 541.5V542.5H1281V541.5H1280ZM1320 541.5V542.5H1321V541.5H1320ZM1360 541.5V542.5H1361V541.5H1360ZM1400 541.5V542.5H1401V541.5H1400ZM-39 1061.5V1062.5H-39.9999L-39.9999 1061.5H-39Z" fill="#1F1F24"/>
</g>
</svg>
