<svg width="32" height="30" viewBox="0 0 32 30" fill="none" xmlns="http://www.w3.org/2000/svg">
<path d="M1.03851 8.82369e-05C0.735631 -0.00394605 0.446511 0.130534 0.248728 0.367448C0.0509451 0.604374 -0.0352605 0.919482 0.0132309 1.22825L4.36556 28.5125C4.47751 29.2017 5.05249 29.7085 5.7292 29.7142H26.6091C27.117 29.7209 27.5531 29.3426 27.6344 28.8248L31.9867 1.23354C32.0353 0.924774 31.949 0.609665 31.7513 0.37274C31.5535 0.135825 31.2643 0.00134521 30.9615 0.00537949L1.03851 8.82369e-05ZM19.3655 19.7195H12.7011L10.8967 9.98423H20.9803L19.3655 19.7195Z" fill="#2684FF"/>
<path fill-rule="evenodd" clip-rule="evenodd" d="M30.6032 9.98438H20.9808L19.366 19.7197H12.7017L4.83258 29.3651C5.08199 29.5877 5.39999 29.7116 5.7297 29.7144H26.6147C27.1227 29.7212 27.5588 29.3429 27.6401 28.8251L30.6032 9.98438Z" fill="url(#paint0_linear_34_357)"/>
<defs>
<linearGradient id="paint0_linear_34_357" x1="32.828" y1="12.7107" x2="21.2302" y2="28.6575" gradientUnits="userSpaceOnUse">
<stop offset="0.18" stop-color="#0052CC"/>
<stop offset="1" stop-color="#2684FF"/>
</linearGradient>
</defs>
</svg>
