<svg width="40" height="32" viewBox="0 0 40 32" fill="none" xmlns="http://www.w3.org/2000/svg">
<path d="M4.4125 4.16562C4.3375 1.99844 6.02578 0 8.30781 0H31.6953C33.9773 0 35.6656 1.99844 35.5906 4.16562C35.518 6.24766 35.6117 8.94375 36.2906 11.143C36.9719 13.3484 38.1195 14.743 40 14.9219V16.9531C38.1195 17.132 36.9719 18.5266 36.2906 20.732C35.6117 22.9312 35.518 25.6273 35.5906 27.7094C35.6656 29.8766 33.9773 31.875 31.6953 31.875H8.30781C6.02578 31.875 4.3375 29.8766 4.4125 27.7094C4.48516 25.6273 4.39063 22.9312 3.7125 20.732C3.03125 18.5266 1.88047 17.132 0 16.9531V14.9219C1.88047 14.743 3.03125 13.3484 3.7125 11.143C4.39063 8.94375 4.48516 6.24766 4.4125 4.16562Z" fill="url(#paint0_linear_4656_1778)"/>
<path fill-rule="evenodd" clip-rule="evenodd" d="M26.7891 19.6172C26.7891 22.6016 24.5625 24.4109 20.8672 24.4109H13.8984V7.45782H20.8313C23.9125 7.45782 25.9344 9.12579 25.9344 11.6867C25.9344 13.4844 24.575 15.0945 22.8414 15.3758V15.4703C25.2008 15.7289 26.7891 17.3617 26.7891 19.6172ZM16.5945 22.261V16.6805H20.157C22.7086 16.6805 24.0328 17.6203 24.0328 19.4531C24.0328 21.286 22.7453 22.261 20.3141 22.261H16.5945ZM16.5945 9.60783H20.1813C22.1313 9.60783 23.2383 10.4774 23.2383 12.0516C23.2383 13.7313 21.9508 14.6711 19.6156 14.6711H16.5945V9.60783Z" fill="white"/>
<defs>
<linearGradient id="paint0_linear_4656_1778" x1="5.9375" y1="0.781249" x2="40.8594" y2="28.5156" gradientUnits="userSpaceOnUse">
<stop stop-color="#9013FE"/>
<stop offset="1" stop-color="#6610F2"/>
</linearGradient>
</defs>
</svg>
