<svg width="36" height="28" viewBox="0 0 36 28" fill="none" xmlns="http://www.w3.org/2000/svg">
<path d="M35.7766 13.1531L26.5888 3.96525C26.3031 3.67955 25.7976 3.67955 25.5119 3.96525L23.52 5.95717C23.2225 6.25468 23.2225 6.73695 23.52 7.03446L30.1776 13.6913L23.5204 20.3493C23.2229 20.6468 23.2229 21.1291 23.5204 21.4266L25.5123 23.4185C25.6552 23.5614 25.8491 23.6421 26.0509 23.6421C26.2525 23.6421 26.4467 23.5614 26.5896 23.4185L35.7766 14.2311C36.0741 13.9332 36.0741 13.4506 35.7766 13.1531Z" fill="#62A92B"/>
<path d="M12.4784 20.3497L5.82192 13.6925L12.4795 7.0356C12.6224 6.89275 12.7028 6.69923 12.7028 6.49695C12.7028 6.29506 12.6228 6.10116 12.4795 5.95831L10.4876 3.96639C10.3448 3.82354 10.1509 3.74316 9.94898 3.74316C9.74709 3.74316 9.55319 3.82354 9.41034 3.96639L0.222157 13.1534C-0.0753544 13.4509 -0.0753544 13.9332 0.222157 14.2311L9.40996 23.4185C9.55281 23.5614 9.74671 23.6421 9.9486 23.6421C10.1505 23.6421 10.3444 23.5614 10.4872 23.4185L12.4792 21.4266C12.7767 21.1295 12.7767 20.6472 12.4784 20.3497Z" fill="#62A92B"/>
<path d="M23.2236 0.874546C23.1268 0.697029 22.9638 0.565225 22.7703 0.508085L21.1555 0.0315335C20.7524 -0.0880805 20.3281 0.143148 20.2092 0.546559L12.7128 25.9333C12.6556 26.1272 12.6777 26.3356 12.7741 26.5127C12.8705 26.6906 13.0339 26.822 13.2274 26.8795L14.8422 27.3561C14.9142 27.3774 14.987 27.3877 15.0582 27.3877C15.387 27.3877 15.6906 27.1729 15.7885 26.8411L23.2849 1.45395C23.342 1.26005 23.3203 1.05168 23.2236 0.874546Z" fill="#62A92B"/>
</svg>
