<svg width="54" height="54" viewBox="0 0 54 54" fill="none" xmlns="http://www.w3.org/2000/svg">
<g clip-path="url(#clip0_846_84)">
<path d="M7.52542 48.6019L3.19385 0H50.8064L46.4691 48.5942L26.9712 54L7.52542 48.6019Z" fill="#1572B6"/>
<path d="M27 49.8693L42.7564 45.5011L46.4631 3.9751H27V49.8693Z" fill="#33A9DC"/>
<path d="M27 21.583H34.8879L35.4317 15.479H27V9.51782H27.0212H41.9464L41.8037 11.1166L40.3399 27.5442H27V21.583Z" fill="white"/>
<path d="M27.0369 37.0632L27.0099 37.0709L20.3718 35.2774L19.9475 30.5234H16.721H13.9631L14.7982 39.8828L27.008 43.2732L27.0369 43.2655V37.0632Z" fill="#EBEBEB"/>
<path d="M34.3806 27.2915L33.6632 35.2739L27.0154 37.0674V43.2697L39.2348 39.8832L39.3255 38.8764L40.3611 27.2915H34.3806Z" fill="white"/>
<path d="M27.0213 9.51782V13.2207V15.4636V15.479H12.6419H12.6226L12.503 14.1387L12.2311 11.1166L12.0884 9.51782H27.0213Z" fill="#EBEBEB"/>
<path d="M27.0001 21.5825V25.2854V27.5283V27.5437H20.4642H20.4449L20.3253 26.2034L20.0553 23.1813L19.9126 21.5825H27.0001Z" fill="#EBEBEB"/>
</g>
<defs>
<clipPath id="clip0_846_84">
<rect width="54" height="54" fill="white"/>
</clipPath>
</defs>
</svg>
