<svg width="32" height="32" viewBox="0 0 32 32" fill="none" xmlns="http://www.w3.org/2000/svg">
<g clip-path="url(#clip0_63_170)">
<path d="M30.4001 0H1.6C0.731462 0 0 0.731406 0 1.6V30.4C0 31.2685 0.731408 32 1.6 32H30.4001C31.2686 32 32.0001 31.2685 32.0001 30.4V1.6C32.0001 0.731406 31.2686 0 30.4001 0ZM11.7486 23.0857H8.9143V8.91427H11.7486V23.0857ZM23.1314 23.0857H14.5829V20.2514H23.1314V23.0857ZM23.1314 17.4171H14.5829V14.5828H23.1314V17.4171ZM23.1314 11.7486H14.5829V8.91427H23.1314V11.7486Z" fill="url(#paint0_linear_63_170)"/>
</g>
<defs>
<linearGradient id="paint0_linear_63_170" x1="31.9769" y1="-0.0319136" x2="-0.02293" y2="31.9679" gradientUnits="userSpaceOnUse">
<stop stop-color="#ED345E"/>
<stop offset="1" stop-color="#382C74"/>
</linearGradient>
<clipPath id="clip0_63_170">
<rect width="32" height="32" fill="white"/>
</clipPath>
</defs>
</svg>
