<svg width="32" height="32" viewBox="0 0 32 32" fill="none" xmlns="http://www.w3.org/2000/svg">
<g clip-path="url(#clip0_34_378)">
<path d="M10.6709 32C12.0853 32 13.4419 31.4381 14.4421 30.438C15.4423 29.4377 16.0042 28.0812 16.0042 26.6667V21.3334H10.6709C9.25635 21.3334 7.89979 21.8953 6.89961 22.8954C5.89943 23.8957 5.33752 25.2522 5.33752 26.6667C5.33752 28.0812 5.89943 29.4377 6.89961 30.438C7.89979 31.4381 9.25635 32 10.6709 32Z" fill="#0ACF83"/>
<path d="M5.33752 16C5.33752 14.5855 5.89943 13.2289 6.89961 12.2287C7.89979 11.2285 9.25635 10.6666 10.6709 10.6666H16.0042V21.3333H10.6709C9.25635 21.3333 7.89979 20.7714 6.89961 19.7712C5.89943 18.771 5.33752 17.4144 5.33752 16Z" fill="#A259FF"/>
<path d="M5.33752 5.33333C5.33752 3.91957 5.89886 2.56364 6.89813 1.56357C7.89742 0.563495 9.25291 0.0011045 10.6667 0H16V10.6667H10.6709C9.25635 10.6667 7.89979 10.1048 6.89961 9.10459C5.89943 8.10436 5.33752 6.74779 5.33752 5.33333Z" fill="#F24E1E"/>
<path d="M16.0042 0H21.3375C22.752 0 24.1086 0.561903 25.1087 1.5621C26.109 2.56229 26.6709 3.91884 26.6709 5.33333C26.6709 6.74779 26.109 8.10436 25.1087 9.10459C24.1086 10.1048 22.752 10.6667 21.3375 10.6667H16.0042V0Z" fill="#FF7262"/>
<path d="M26.6709 16C26.6709 17.4144 26.109 18.771 25.1087 19.7712C24.1086 20.7714 22.752 21.3333 21.3375 21.3333C19.923 21.3333 18.5665 20.7714 17.5663 19.7712C16.5661 18.771 16.0042 17.4144 16.0042 16C16.0042 14.5855 16.5661 13.2289 17.5663 12.2287C18.5665 11.2285 19.923 10.6666 21.3375 10.6666C22.752 10.6666 24.1086 11.2285 25.1087 12.2287C26.109 13.2289 26.6709 14.5855 26.6709 16Z" fill="#1ABCFE"/>
</g>
<defs>
<clipPath id="clip0_34_378">
<rect width="32" height="32" fill="white"/>
</clipPath>
</defs>
</svg>
