<svg width="54" height="54" viewBox="0 0 54 54" fill="none" xmlns="http://www.w3.org/2000/svg">
<path d="M8.03116 48.0414L3.8103 0.700684H50.1896L45.9641 48.0342L26.9717 53.2992L8.03116 48.0414Z" fill="#E44D26"/>
<path d="M27 49.2751L42.347 45.0201L45.9578 4.57153H27V49.2751Z" fill="#F16529"/>
<path d="M27 22.1294H19.3168L18.7861 16.1835H27V10.3777H12.4407L12.5799 11.9352L14.0067 27.9357H27V22.1294ZM27 37.2085L26.9743 37.2157L20.5082 35.4691L20.0952 30.839H14.2661L15.0795 39.9553L26.9734 43.2569L27 43.2498V37.2085Z" fill="#EBEBEB"/>
<path d="M26.9797 22.1294V27.9357H34.1293L33.4555 35.4658L26.9797 37.2136V43.2544L38.8829 39.9553L38.9703 38.9745L40.3346 23.6887L40.4759 22.1294H38.9116H26.9797ZM26.9797 10.3777V16.1835H41.0045L41.121 14.8791L41.3859 11.9352L41.5247 10.3777H26.9797Z" fill="white"/>
</svg>
