<svg width="32" height="32" viewBox="0 0 32 32" fill="none" xmlns="http://www.w3.org/2000/svg">
<path d="M23.7483 30.002C23.6293 30.065 23.6393 30.085 23.7533 30.027C23.7903 30.012 23.8213 29.991 23.8483 29.966C23.8483 29.945 23.8483 29.945 23.7483 30.002ZM23.9883 29.872C23.9313 29.919 23.9313 29.919 23.9993 29.888C24.0352 29.867 24.0672 29.847 24.0672 29.841C24.0672 29.814 24.0512 29.82 23.9883 29.872ZM24.1442 29.778C24.0872 29.825 24.0872 29.825 24.1552 29.794C24.1922 29.773 24.2232 29.751 24.2232 29.746C24.2232 29.721 24.2072 29.726 24.1442 29.778ZM24.3022 29.685C24.2452 29.732 24.2452 29.732 24.3112 29.7C24.3482 29.6799 24.3792 29.659 24.3792 29.653C24.3792 29.6279 24.3632 29.6329 24.3022 29.685ZM24.5152 29.5439C24.4062 29.617 24.3682 29.664 24.4682 29.6119C24.5352 29.5709 24.6492 29.4809 24.6292 29.4809C24.5862 29.4969 24.5502 29.5239 24.5142 29.5439H24.5152ZM14.9525 0.00735018C14.8795 0.0123503 14.6605 0.0323507 14.4685 0.048351C9.92069 0.460359 5.66582 2.90841 2.96891 6.67949C1.47795 8.74653 0.509984 11.1476 0.144995 13.6686C0.0159995 14.5486 0 14.8086 0 16.0017C0 17.1937 0.0159995 17.4497 0.144995 18.3297C1.01597 24.3408 5.29184 29.3869 11.0877 31.257C12.1306 31.59 13.2236 31.82 14.4685 31.961C14.9525 32.013 17.0455 32.013 17.5295 31.961C19.6814 31.721 21.4983 31.19 23.2963 30.273C23.5723 30.133 23.6243 30.096 23.5873 30.065C22.7073 28.9039 21.8433 27.7419 20.9783 26.5699L18.4214 23.1168L15.2185 18.3717C14.1506 16.7837 13.0786 15.1997 11.9896 13.6276C11.9786 13.6276 11.9646 15.7367 11.9586 18.3087C11.9476 22.8138 11.9476 22.9968 11.8906 23.1008C11.8336 23.2258 11.7396 23.3298 11.6146 23.3878C11.5156 23.4348 11.4266 23.4448 10.9537 23.4448H10.4127L10.2717 23.3568C10.1837 23.2998 10.1107 23.2208 10.0637 23.1278L9.99569 22.9868L10.0007 16.7157L10.0117 10.4446L10.1107 10.3196C10.1737 10.2426 10.2517 10.1796 10.3397 10.1326C10.4707 10.0696 10.5227 10.0596 11.0637 10.0596C11.6986 10.0596 11.8036 10.0846 11.9706 10.2676C13.2666 12.1996 14.5585 14.1366 15.8295 16.0797C17.9084 19.2317 20.7464 23.5328 22.1413 25.6429L24.6782 29.4819L24.8032 29.3989C26.0222 28.5859 27.1312 27.6179 28.0881 26.5139C30.1041 24.2058 31.412 21.3668 31.855 18.3367C31.984 17.4567 32 17.1957 32 16.0037C32 14.8106 31.984 14.5556 31.855 13.6756C30.984 7.66451 26.7082 2.6184 20.9123 0.747365C19.8284 0.404358 18.7134 0.170353 17.5844 0.050351C17.2815 0.0193504 15.2135 -0.0176503 14.9535 0.00935022L14.9525 0.00735018ZM21.4993 9.68455C21.6503 9.75655 21.7643 9.89255 21.8163 10.0486C21.8433 10.1326 21.8483 11.8716 21.8433 15.7887L21.8323 21.4128L20.8433 19.8928L19.8484 18.3717V14.2886C19.8484 11.6416 19.8594 10.1576 19.8734 10.0846C19.9204 9.91755 20.0344 9.77755 20.1864 9.68955C20.3104 9.62655 20.3584 9.62155 20.8533 9.62155C21.3163 9.62155 21.3953 9.62655 21.4993 9.68455Z" fill="black"/>
</svg>
