<svg width="32" height="31" viewBox="0 0 32 31" fill="none" xmlns="http://www.w3.org/2000/svg">
<g clip-path="url(#clip0_34_346)">
<mask id="mask0_34_346" style="mask-type:luminance" maskUnits="userSpaceOnUse" x="0" y="0" width="32" height="31">
<path d="M32 0H0V31H32V0Z" fill="white"/>
</mask>
<g mask="url(#mask0_34_346)">
<path d="M26.3336 0H5.66641C2.53694 0 0 2.52066 0 5.63004V25.3699C0 28.4794 2.53694 31 5.66641 31H26.3336C29.4631 31 32 28.4794 32 25.3699V5.63004C32 2.52066 29.4631 0 26.3336 0Z" fill="#001E36"/>
<path d="M7.20594 21.7394V8.10983C7.20594 8.01103 7.24845 7.96068 7.33474 7.96068C7.56297 7.96068 7.77245 7.96068 8.08508 7.95012C8.39771 7.93955 8.73977 7.93588 9.10491 7.92899L10.2642 7.90729C10.6719 7.90023 11.0761 7.89673 11.4767 7.89673C12.5643 7.89673 13.4814 8.03175 14.2279 8.3018C14.8991 8.52787 15.5113 8.89946 16.0201 9.38967C16.4514 9.81477 16.7847 10.328 16.9967 10.8937C17.1974 11.4447 17.2987 12.0264 17.2963 12.6122C17.2963 13.7504 17.0315 14.6889 16.5022 15.4279C15.969 16.1699 15.2198 16.732 14.3555 17.0382C13.4538 17.3725 12.4515 17.4855 11.3497 17.4855C11.0371 17.4855 10.8133 17.4824 10.6844 17.475C10.5556 17.4675 10.3624 17.4644 10.1048 17.4644V21.7196C10.1081 21.7417 10.1069 21.7642 10.1013 21.7858C10.0958 21.8074 10.086 21.8277 10.0725 21.8456C10.059 21.8634 10.0421 21.8785 10.0227 21.8898C10.0034 21.9011 9.98194 21.9085 9.95971 21.9115C9.94377 21.914 9.92748 21.914 9.91154 21.9115H7.356C7.25343 21.9097 7.20594 21.8532 7.20594 21.7394ZM10.1048 10.5204V14.9656C10.2907 14.9801 10.4625 14.9872 10.62 14.9868H11.3285C11.8498 14.985 12.3677 14.9028 12.8635 14.7432C13.2887 14.6183 13.6687 14.3746 13.9585 14.0412C14.2373 13.7144 14.3768 13.2588 14.3768 12.6743C14.3876 12.2617 14.2791 11.8546 14.0641 11.5014C13.8389 11.1597 13.5131 10.8953 13.1312 10.744C12.6334 10.5519 12.1018 10.4613 11.5679 10.4775C11.2241 10.4775 10.9199 10.481 10.6557 10.488C10.3914 10.4951 10.2088 10.5059 10.1079 10.5204H10.1048Z" fill="#31A8FF"/>
<path d="M25.5963 14.1571C25.1929 13.951 24.7631 13.8003 24.3189 13.7092C23.8294 13.5975 23.329 13.5402 22.8269 13.5383C22.5554 13.5312 22.2842 13.5636 22.0222 13.6347C21.8551 13.6714 21.7067 13.7658 21.6032 13.9012C21.5333 14.0094 21.4961 14.1354 21.4963 14.264C21.5001 14.3887 21.5454 14.5087 21.6251 14.6051C21.7504 14.7508 21.9037 14.8704 22.0759 14.9567C22.3818 15.1199 22.6971 15.2652 23.0201 15.3916C23.7406 15.6314 24.4291 15.9573 25.0705 16.362C25.507 16.6363 25.8683 17.0137 26.1222 17.4605C26.3362 17.8843 26.4434 18.3533 26.4349 18.8273C26.4475 19.4524 26.2678 20.0665 25.9196 20.5874C25.5466 21.1157 25.0288 21.5265 24.4277 21.7709C23.7749 22.0559 22.969 22.1984 22.0103 22.1984C21.4015 22.204 20.7938 22.1468 20.1969 22.0275C19.7265 21.9418 19.2686 21.7985 18.8338 21.6007C18.7867 21.5767 18.7475 21.5399 18.7209 21.4945C18.6942 21.4492 18.6811 21.3972 18.6831 21.3447V19.0416C18.6803 19.0191 18.6839 18.9962 18.6934 18.9755C18.7029 18.9547 18.7179 18.937 18.7369 18.9242C18.7553 18.9138 18.7765 18.9092 18.7976 18.9111C18.8187 18.9129 18.8388 18.9213 18.855 18.9348C19.3691 19.2359 19.9273 19.4554 20.5095 19.5853C21.0224 19.7131 21.5485 19.7811 22.0771 19.7878C22.5774 19.7878 22.9459 19.7238 23.1827 19.5959C23.2893 19.5473 23.3794 19.4692 23.4422 19.3708C23.505 19.2725 23.5378 19.1581 23.5366 19.0416C23.5366 18.8565 23.4293 18.6786 23.2146 18.508C22.9999 18.3373 22.563 18.1323 21.9039 17.8929C21.2299 17.6598 20.5909 17.3369 20.0043 16.933C19.5848 16.6434 19.2392 16.2605 18.9951 15.8147C18.7835 15.3946 18.6763 14.9301 18.6825 14.4603C18.6806 13.8944 18.8369 13.3391 19.1339 12.8562C19.4714 12.3257 19.9561 11.9034 20.5295 11.6403C21.159 11.3276 21.9461 11.1713 22.8907 11.1713C23.444 11.1667 23.9969 11.2057 24.5439 11.2881C24.94 11.3387 25.3271 11.4432 25.6945 11.5987C25.7237 11.607 25.7505 11.622 25.7728 11.6423C25.7952 11.6627 25.8125 11.688 25.8233 11.7161C25.8378 11.7681 25.845 11.8219 25.8446 11.8758V14.0304C25.8463 14.0553 25.8414 14.0802 25.8305 14.1027C25.8195 14.1252 25.8028 14.1443 25.7821 14.1584C25.7531 14.1725 25.7213 14.1797 25.689 14.1795C25.6568 14.1792 25.6251 14.1716 25.5963 14.1571Z" fill="#31A8FF"/>
</g>
</g>
<defs>
<clipPath id="clip0_34_346">
<rect width="32" height="31" fill="white"/>
</clipPath>
</defs>
</svg>
