<svg width="53" height="46" viewBox="0 0 53 46" fill="none" xmlns="http://www.w3.org/2000/svg">
<path d="M31.2328 22.9241C31.2328 20.39 29.114 18.3353 26.5001 18.3353C23.8865 18.3353 21.7673 20.39 21.7673 22.9241C21.7673 25.4585 23.8865 27.513 26.5001 27.513C29.114 27.513 31.2328 25.4585 31.2328 22.9241Z" fill="#53C1DE"/>
<path fill-rule="evenodd" clip-rule="evenodd" d="M41.8707 14.4049C42.8701 10.4671 44.1264 3.16495 39.6977 0.689281C35.2897 -1.77559 29.5535 2.94756 26.5246 5.78262C23.5044 2.97581 17.6071 -1.72715 13.1822 0.756378C8.77593 3.22952 10.1347 10.4106 11.1563 14.3731C7.04601 15.505 0 17.943 0 22.9241C0 27.8911 7.03868 30.5435 11.1247 31.6744C10.0993 35.6587 8.80853 42.7373 13.2204 45.2049C17.6619 47.688 23.5408 43.0969 26.5979 40.2309C29.6463 43.0826 35.3273 47.7037 39.7362 45.2291C44.1589 42.7468 43.007 35.5425 41.9854 31.5571C45.9462 30.4238 53 27.8291 53 22.9241C53 17.9908 45.9162 15.5331 41.8707 14.4049ZM41.3686 29.445C40.6978 27.3862 39.7924 25.1967 38.6849 22.935C39.7421 20.7267 40.6123 18.5655 41.2644 16.5199C44.2301 17.3536 50.736 19.259 50.736 22.9241C50.736 26.6237 44.4928 28.547 41.3686 29.445ZM38.6017 43.3293C35.3121 45.1754 30.4257 40.7563 28.1744 38.6563C29.668 37.0724 31.1605 35.2312 32.6171 33.1867C35.1795 32.9664 37.6 32.6059 39.7952 32.1139C40.5143 34.933 41.9057 41.4748 38.6017 43.3293ZM14.3517 43.3029C11.0619 41.4637 12.5656 35.1471 13.3199 32.2122C15.4907 32.6779 17.8939 33.0128 20.4622 33.2147C21.9284 35.2153 23.4642 37.0542 25.0118 38.6647C23.0997 40.4581 17.6569 45.1507 14.3517 43.3029ZM2.26397 22.9241C2.26397 19.2107 8.73099 17.3192 11.7643 16.4876C12.4276 18.5791 13.2976 20.7661 14.3475 22.9776C13.284 25.222 12.4016 27.4436 11.7322 29.5599C8.83985 28.7571 2.26397 26.6397 2.26397 22.9241ZM14.3165 2.65625C17.6198 0.802347 22.7453 5.31736 24.9381 7.34956C23.3984 8.95265 21.8768 10.7777 20.4232 12.7668C17.9306 12.9908 15.5445 13.3505 13.3509 13.8325C12.5279 10.6366 11.0168 4.50816 14.3165 2.65625ZM34.2368 15.1529C35.9278 15.3598 37.548 15.635 39.0693 15.9717C38.6126 17.3911 38.0434 18.8752 37.3729 20.3967C36.4011 18.6088 35.3579 16.8568 34.2368 15.1529ZM26.5253 8.91831C27.5695 10.0152 28.6154 11.2401 29.6443 12.5689C27.5574 12.4732 25.467 12.4728 23.3801 12.5675C24.4099 11.251 25.4647 10.0279 26.5253 8.91831ZM15.6465 20.3951C14.9871 18.879 14.423 17.3882 13.9624 15.9486C15.4746 15.6205 17.0872 15.3523 18.7673 15.1488C17.643 16.8491 16.6015 18.6003 15.6465 20.3951ZM18.8155 30.8561C17.08 30.6683 15.4429 30.4137 13.9312 30.0946C14.3991 28.6297 14.9756 27.1068 15.6491 25.558C16.6173 27.3715 17.6746 29.1398 18.8155 30.8561ZM26.588 37.085C25.5149 35.9623 24.4445 34.7205 23.3991 33.3849C25.4979 33.4647 27.6008 33.4649 29.6994 33.3741C28.6673 34.7341 27.6252 35.9776 26.588 37.085ZM37.3945 25.4792C38.1029 27.0448 38.7001 28.5594 39.1744 29.9996C37.6376 30.3397 35.9785 30.6135 34.2304 30.8168C35.3598 29.0806 36.4197 27.3014 37.3945 25.4792ZM31.3536 31.0829C28.1432 31.3053 24.9128 31.3029 21.7014 31.1011C19.8766 28.5166 18.2521 25.7986 16.8499 22.9769C18.2454 20.161 19.858 17.4483 21.6742 14.8679C24.8879 14.6324 28.1214 14.6317 31.3352 14.8693C33.1358 17.4495 34.7459 20.1552 36.1737 22.9456C34.7629 25.7601 33.1418 28.4783 31.3536 31.0829ZM38.5669 2.59099C41.8711 4.43882 40.4003 11.0015 39.6784 13.8553C37.4797 13.3632 35.0918 12.9972 32.592 12.7696C31.1356 10.7591 29.6266 8.93082 28.1119 7.34843C30.3328 5.27246 35.2946 0.761237 38.5669 2.59099Z" fill="#53C1DE"/>
</svg>
