<svg width="32" height="24" viewBox="0 0 32 24" fill="none" xmlns="http://www.w3.org/2000/svg">
<g clip-path="url(#clip0_34_386)">
<path fill-rule="evenodd" clip-rule="evenodd" d="M27.5475 13.7812C26.4277 13.7864 25.4589 14.0573 24.6464 14.456C24.347 13.8619 24.0475 13.3434 23.9954 12.9552C23.9381 12.5044 23.8704 12.2308 23.9381 11.6915C24.0058 11.1547 24.3183 10.3913 24.3183 10.3288C24.3131 10.2714 24.2506 9.99787 23.6048 9.99004C22.9615 9.9848 22.4042 10.1151 22.3417 10.2844C22.2793 10.4538 22.1543 10.842 22.0735 11.2407C21.9616 11.8296 20.7871 13.9114 20.1178 15.0058C19.899 14.5811 19.7116 14.2059 19.6751 13.9062C19.6178 13.4555 19.5501 13.1819 19.6178 12.6425C19.6855 12.1058 19.998 11.3423 19.998 11.2798C19.9928 11.2225 19.9303 10.9489 19.2845 10.9411C18.6412 10.9359 18.0839 11.0661 18.0214 11.2355C17.9589 11.4048 17.8912 11.8035 17.7532 12.1917C17.623 12.58 16.0605 16.0558 15.6543 16.9626C15.4485 17.4264 15.2662 17.7937 15.136 18.0439C15.0058 18.294 15.1308 18.0621 15.1178 18.0882C15.0058 18.3018 14.9433 18.4191 14.9433 18.4191V18.4243C14.8548 18.5806 14.761 18.7317 14.7193 18.7317C14.6881 18.7317 14.6256 18.3123 14.7324 17.7364C14.9642 16.53 15.5267 14.6462 15.5189 14.5784C15.5189 14.5472 15.6256 14.2163 15.1569 14.0469C14.7011 13.8776 14.5371 14.159 14.5006 14.159C14.4642 14.159 14.4329 14.258 14.4329 14.258C14.4329 14.258 14.9381 12.137 13.4642 12.137C12.5397 12.137 11.2636 13.1428 10.6334 14.0625C10.2324 14.2814 9.38341 14.7452 8.48237 15.2377C8.13865 15.4253 7.78187 15.6259 7.44592 15.8057L7.37824 15.7301C5.58917 13.8307 2.28186 12.481 2.41988 9.91707C2.46936 8.98427 2.79488 6.5272 8.77146 3.55164C13.6647 1.11282 17.584 1.78245 18.2663 3.27024C19.235 5.3964 16.1725 9.34907 11.084 9.91707C9.14643 10.136 8.12822 9.38556 7.87042 9.10413C7.60219 8.80969 7.56309 8.79667 7.46415 8.854C7.30271 8.94258 7.40164 9.20315 7.46415 9.35947C7.61521 9.75293 8.24017 10.4538 9.30271 10.803C10.235 11.1104 12.5084 11.2772 15.2584 10.2141C18.3392 9.02075 20.7454 5.70387 20.0397 2.93412C19.3209 0.117487 14.6464 -0.810098 10.2272 0.761066C7.59697 1.69907 4.74542 3.16341 2.69593 5.08373C0.258423 7.3584 -0.129597 9.34644 0.0318607 10.1724C0.59957 13.1193 4.65688 15.037 6.28186 16.4571C6.20112 16.5014 6.12563 16.5457 6.05791 16.5821C5.24541 16.9834 2.15165 18.6015 1.37561 20.316C0.500611 22.2545 1.51363 23.6511 2.18811 23.8387C4.27665 24.4197 6.41468 23.3749 7.57094 21.6552C8.72197 19.9355 8.58393 17.7025 8.05269 16.6838L8.03445 16.6473L8.67248 16.2721C9.08392 16.0272 9.49019 15.8031 9.84697 15.6103C9.64646 16.1548 9.50321 16.7984 9.42768 17.7364C9.33913 18.836 9.78968 20.2638 10.3834 20.8266C10.6464 21.0716 10.9589 21.0768 11.1516 21.0768C11.8392 21.0768 12.1517 20.5088 12.4954 19.8261C12.9199 18.9949 13.2949 18.0308 13.2949 18.0308C13.2949 18.0308 12.8261 20.639 14.1074 20.639C14.5761 20.639 15.0449 20.032 15.2584 19.7193V19.7245C15.2584 19.7245 15.2715 19.7062 15.2949 19.662C15.3209 19.6228 15.347 19.5838 15.3704 19.5421V19.5291C15.5579 19.2034 15.9772 18.4608 16.6022 17.2284C17.4094 15.6389 18.1829 13.6509 18.1829 13.6509C18.1829 13.6509 18.2584 14.1381 18.4902 14.938C18.6282 15.4122 18.9277 15.9334 19.1595 16.4388C18.972 16.702 18.86 16.8505 18.86 16.8505L18.8652 16.8557C18.7142 17.0564 18.5475 17.2674 18.3704 17.4811C17.7324 18.2445 16.9694 19.1122 16.8704 19.3623C16.7506 19.6567 16.7766 19.8756 17.0084 20.0502C17.1777 20.1752 17.4772 20.2013 17.7949 20.1752C18.3704 20.1388 18.7688 19.9928 18.9694 19.9069C19.2818 19.7948 19.6386 19.6255 19.9824 19.3753C20.6074 18.9116 20.9876 18.2549 20.9511 17.3795C20.9329 16.8974 20.7766 16.4232 20.5813 15.9724C20.6386 15.8917 20.6933 15.8109 20.7506 15.7223C21.7376 14.2788 22.5006 12.6894 22.5006 12.6894C22.5006 12.6894 22.5761 13.1767 22.8079 13.9766C22.9277 14.383 23.1647 14.826 23.3756 15.2637C22.4511 16.0193 21.8704 16.8948 21.6699 17.4707C21.3001 18.5337 21.5892 19.0158 22.1334 19.1278C22.3782 19.1773 22.7272 19.0652 22.9902 18.9532C23.3157 18.8464 23.7089 18.6666 24.0709 18.3956C24.6959 17.9318 25.2949 17.2883 25.2636 16.4206C25.2454 16.0193 25.1386 15.6259 24.9954 15.2507C25.7819 14.925 26.8027 14.7374 28.0944 14.8937C30.8756 15.2194 31.4251 16.9573 31.3209 17.6817C31.2142 18.406 30.6334 18.8073 30.4407 18.9324C30.248 19.0522 30.1855 19.0939 30.2037 19.1825C30.2298 19.3128 30.3157 19.3076 30.485 19.2815C30.7168 19.2451 31.9485 18.6875 31.998 17.3482C32.0735 15.6389 30.4407 13.7629 27.5475 13.7812ZM6.09696 21.0168C5.17769 22.0226 3.88342 22.4056 3.33394 22.0799C2.74019 21.736 2.97197 20.2534 4.10217 19.1851C4.78965 18.5337 5.68289 17.9344 6.27143 17.5644C6.40167 17.4837 6.60217 17.3638 6.83914 17.2205C6.87562 17.1944 6.90165 17.184 6.90165 17.184C6.94593 17.158 6.99542 17.1267 7.04487 17.0955C7.46415 18.6223 7.06573 19.959 6.09696 21.0168ZM12.8157 16.4467C12.498 17.2283 11.8209 19.2372 11.4147 19.1226C11.0657 19.0288 10.8522 17.5097 11.347 16.0089C11.597 15.2533 12.1282 14.3518 12.4407 14.0026C12.9459 13.4398 13.498 13.2522 13.6334 13.4841C13.7975 13.7812 13.0162 15.9568 12.8157 16.4467ZM18.36 19.0965C18.222 19.1643 18.097 19.2164 18.0423 19.1773C17.998 19.1512 18.0995 19.0575 18.0995 19.0575C18.0995 19.0575 18.7923 18.3123 19.0683 17.9683C19.2246 17.7677 19.4121 17.5358 19.6126 17.2752V17.3508C19.61 18.2523 18.748 18.8542 18.36 19.0965ZM22.636 18.122C22.5371 18.0465 22.5475 17.8146 22.886 17.0902C23.0162 16.8036 23.3183 16.3216 23.8365 15.8656C23.899 16.0532 23.9355 16.2356 23.9303 16.4024C23.9225 17.528 23.123 17.9475 22.636 18.122Z" fill="#CF649A"/>
</g>
<defs>
<clipPath id="clip0_34_386">
<rect width="32" height="24" fill="white"/>
</clipPath>
</defs>
</svg>
