<svg width="32" height="19" viewBox="0 0 32 19" fill="none" xmlns="http://www.w3.org/2000/svg">
<g clip-path="url(#clip0_34_384)">
<path fill-rule="evenodd" clip-rule="evenodd" d="M16 0C11.7344 0 9.06771 2.11111 8 6.33332C9.60072 4.22308 11.467 3.43153 13.5989 3.95866C14.8177 4.25939 15.6823 5.13302 16.651 6.10003C18.2136 7.67621 20.0365 9.49872 24 9.49872C28.2656 9.49872 30.9323 7.38761 32 3.16537C30.4011 5.27733 28.5347 6.06889 26.4011 5.54003C25.1823 5.23933 24.3177 4.36566 23.349 3.39869C21.7813 1.81471 19.9661 0 16 0ZM8 9.49872C3.73437 9.49872 1.06771 11.6098 0 15.832C1.60243 13.7218 3.46875 12.9302 5.59895 13.4574C6.81773 13.7581 7.68227 14.6317 8.65103 15.6013C10.2136 17.1749 12.0365 19 16 19C20.2656 19 22.9323 16.8889 24 12.6667C22.4011 14.7769 20.5347 15.5667 18.4011 15.0361C17.1823 14.7355 16.3177 13.8618 15.349 12.8948C13.7864 11.3186 11.9635 9.49352 8 9.49352V9.49872Z" fill="#06B6D4"/>
</g>
<defs>
<clipPath id="clip0_34_384">
<rect width="32" height="19" fill="white"/>
</clipPath>
</defs>
</svg>
