<svg width="53" height="52" viewBox="0 0 53 52" fill="none" xmlns="http://www.w3.org/2000/svg">
<path d="M4.44737 26.0027C4.44737 34.8315 9.57773 42.461 17.0176 46.0766L6.37839 16.9256C5.10301 19.7817 4.44499 22.8748 4.44737 26.0027ZM41.8079 24.8771C41.8079 22.1208 40.8177 20.2117 39.9686 18.726C38.8379 16.8887 37.7782 15.3328 37.7782 13.4955C37.7782 11.4452 39.3332 9.53652 41.5236 9.53652C41.6225 9.53652 41.7161 9.54876 41.8126 9.55446C37.8445 5.91885 32.5577 3.69922 26.7512 3.69922C18.9592 3.69922 12.104 7.6972 8.1159 13.7527C8.63914 13.7684 9.13219 13.7792 9.55122 13.7792C11.8839 13.7792 15.4952 13.4964 15.4952 13.4964C16.6976 13.4254 16.8394 15.1913 15.6383 15.3336C15.6383 15.3336 14.43 15.4758 13.0854 15.5461L21.2079 39.7059L26.0889 25.0668L22.6139 15.5455C21.4128 15.4752 20.275 15.333 20.275 15.333C19.0732 15.2625 19.2141 13.4248 20.4159 13.4958C20.4159 13.4958 24.0994 13.7788 26.2908 13.7788C28.6235 13.7788 32.2349 13.4958 32.2349 13.4958C33.438 13.4248 33.5795 15.1907 32.3781 15.333C32.3781 15.333 31.1673 15.4752 29.8251 15.5455L37.8855 39.5222L40.1101 32.0878C41.0742 29.0027 41.8081 26.787 41.8081 24.8773L41.8079 24.8771ZM27.1425 27.9538L20.4506 47.3998C22.4965 48.0024 24.6184 48.3084 26.7512 48.3085C29.3484 48.3085 31.8392 47.8595 34.1578 47.0442C34.0959 46.9467 34.0427 46.8438 33.999 46.7369L27.1425 27.9538ZM46.3218 15.3018C46.4177 16.0123 46.4721 16.7749 46.4721 17.5953C46.4721 19.8587 46.0494 22.403 44.7762 25.5843L37.9634 45.2826C44.5941 41.4157 49.054 34.2318 49.054 26.0033C49.0544 22.1255 48.064 18.4788 46.3218 15.3018ZM26.7512 0.00344849C12.4153 0.00344849 0.751709 11.6666 0.751709 26.0027C0.751709 40.3407 12.4153 52.0034 26.7512 52.0034C41.0865 52.0034 52.7517 40.3407 52.7517 26.0027C52.7515 11.6666 41.0865 0.00344849 26.7512 0.00344849ZM26.7512 50.8118C13.0729 50.8118 1.94376 39.6824 1.94376 26.0027C1.94376 12.3241 13.0723 1.19554 26.7512 1.19554C40.429 1.19554 51.5572 12.3241 51.5572 26.0027C51.5572 39.6824 40.429 50.8118 26.7512 50.8118Z" fill="#21759B"/>
</svg>
